<svg id="Layer_1" data-name="Layer 1" xmlns="http://www.w3.org/2000/svg" viewBox="0 0 250 29.51"><defs><style>.cls-1{fill:#00758d;}.cls-2{fill:#b1b3b6;}</style></defs><path class="cls-1" d="M148.64,136.24h-16l-1.86,5.2a2.93,2.93,0,0,1-.44.87,1.56,1.56,0,0,1-.53.45,1.48,1.48,0,0,1-.6.15c-.21,0-.44,0-.67,0a1.67,1.67,0,0,1-.59-.11,1,1,0,0,1-.44-.36,1.3,1.3,0,0,1-.15-.67,3.19,3.19,0,0,1,.21-1l8.92-24.39a6.73,6.73,0,0,1,.71-1.47,3.07,3.07,0,0,1,.85-.87,2.91,2.91,0,0,1,1-.43,6.15,6.15,0,0,1,1.18-.11h.83a6.09,6.09,0,0,1,1.16.11,3,3,0,0,1,1,.43,3.07,3.07,0,0,1,.85.87,6.73,6.73,0,0,1,.71,1.47l8.93,24.39a2.84,2.84,0,0,1,.19,1,1.3,1.3,0,0,1-.16.67,1,1,0,0,1-.43.36,1.58,1.58,0,0,1-.58.11c-.23,0-.45,0-.67,0a1.44,1.44,0,0,1-1.13-.6,2.93,2.93,0,0,1-.43-.87Zm-15-2.58h14.12l-5.84-16.24a3.06,3.06,0,0,0-.45-.88.8.8,0,0,0-.54-.28h-.42a.8.8,0,0,0-.55.28,2.81,2.81,0,0,0-.46.88Z" transform="translate(-127.38 -113.47)"/><path class="cls-1" d="M171,139.92a11.11,11.11,0,0,0,1.9-.49,7.67,7.67,0,0,0,1.37-.64,11.39,11.39,0,0,0,1-.64l.69-.49a1,1,0,0,1,.56-.19,1.3,1.3,0,0,1,.94.38,1.23,1.23,0,0,1,.39.92,2.35,2.35,0,0,1-.64,1.48,5.9,5.9,0,0,1-1.83,1.36,12.61,12.61,0,0,1-2.83,1,16.1,16.1,0,0,1-3.67.38h-.93a19.53,19.53,0,0,1-4.91-.54,10.57,10.57,0,0,1-3.44-1.51,7.6,7.6,0,0,1-2.23-2.33,11.27,11.27,0,0,1-1.27-3,18.06,18.06,0,0,1-.58-3.48c-.09-1.23-.14-2.5-.14-3.82v-.14c0-1.31.05-2.58.14-3.81a18.3,18.3,0,0,1,.58-3.49,11.41,11.41,0,0,1,1.27-3,7.86,7.86,0,0,1,2.23-2.34A10.57,10.57,0,0,1,163,114a19.53,19.53,0,0,1,4.91-.54h.93a16.68,16.68,0,0,1,3.67.38,12.59,12.59,0,0,1,2.83,1,6.06,6.06,0,0,1,1.83,1.36,2.33,2.33,0,0,1,.64,1.47,1.23,1.23,0,0,1-.39.92,1.31,1.31,0,0,1-.94.39,1,1,0,0,1-.56-.2l-.69-.49c-.27-.2-.59-.41-1-.64a7.67,7.67,0,0,0-1.37-.64,12.13,12.13,0,0,0-1.9-.49,15.15,15.15,0,0,0-2.59-.19h-.69a14.1,14.1,0,0,0-3.55.39,7.71,7.71,0,0,0-2.49,1.11,6.06,6.06,0,0,0-1.64,1.75,8.42,8.42,0,0,0-.94,2.3,16.34,16.34,0,0,0-.42,2.75c-.07,1-.11,2-.11,3.11v1c0,1.09,0,2.12.11,3.11a16.18,16.18,0,0,0,.42,2.75,8.23,8.23,0,0,0,.94,2.29,6.15,6.15,0,0,0,1.64,1.74,7.71,7.71,0,0,0,2.49,1.11,14.06,14.06,0,0,0,3.55.4h.69A15.07,15.07,0,0,0,171,139.92Z" transform="translate(-127.38 -113.47)"/><path class="cls-1" d="M202.21,113.74c.44,0,.72.09.85.28a2.27,2.27,0,0,1,.19,1.12,1.7,1.7,0,0,1-.16.79,1.14,1.14,0,0,1-.37.43,1.12,1.12,0,0,1-.44.16l-.34,0h-9.13v25.51a.71.71,0,0,1-.5.74,3.25,3.25,0,0,1-1.12.17,3.21,3.21,0,0,1-1.12-.18.72.72,0,0,1-.49-.73V116.55h-9a1.46,1.46,0,0,1-.4,0,.82.82,0,0,1-.4-.21,1.14,1.14,0,0,1-.33-.43,1.69,1.69,0,0,1-.13-.72,4.9,4.9,0,0,1,0-.73,1,1,0,0,1,.15-.43.45.45,0,0,1,.31-.2,2.45,2.45,0,0,1,.51,0Z" transform="translate(-127.38 -113.47)"/><path class="cls-1" d="M210.35,142.06a.7.7,0,0,1-.14.46,1,1,0,0,1-.36.27,1.59,1.59,0,0,1-.51.13,5.41,5.41,0,0,1-.59,0,3.62,3.62,0,0,1-1.15-.17.7.7,0,0,1-.48-.72V114.61a.93.93,0,0,1,.45-.83,2.13,2.13,0,0,1,1.18-.29,2.4,2.4,0,0,1,1.15.23.94.94,0,0,1,.45.93Z" transform="translate(-127.38 -113.47)"/><path class="cls-1" d="M237.16,115a3.23,3.23,0,0,1,.45-.86,1.45,1.45,0,0,1,.51-.43,1.57,1.57,0,0,1,.6-.16l.7,0a1.61,1.61,0,0,1,.58.1.82.82,0,0,1,.42.36,1.15,1.15,0,0,1,.16.66,3.19,3.19,0,0,1-.21,1l-8.9,24.42a6.7,6.7,0,0,1-.73,1.47,3.39,3.39,0,0,1-.86.87,2.82,2.82,0,0,1-1,.41,7,7,0,0,1-1.16.12h-1a7,7,0,0,1-1.16-.12,2.82,2.82,0,0,1-1-.41,3.39,3.39,0,0,1-.86-.87,6.71,6.71,0,0,1-.72-1.47L214,115.68a3.13,3.13,0,0,1-.2-1A1.24,1.24,0,0,1,214,114a.86.86,0,0,1,.42-.36,1.61,1.61,0,0,1,.58-.1l.7,0a1.52,1.52,0,0,1,1.12.59,3.57,3.57,0,0,1,.44.86l8.66,24a3.44,3.44,0,0,0,.44.87.74.74,0,0,0,.55.29h.62a.72.72,0,0,0,.55-.29,3.41,3.41,0,0,0,.45-.87Z" transform="translate(-127.38 -113.47)"/><path class="cls-1" d="M246.17,142.73a3.1,3.1,0,0,1-1.06-.17,1.57,1.57,0,0,1-.69-.25.65.65,0,0,1-.28-.6V115.12a1.2,1.2,0,0,1,.52-1,2.41,2.41,0,0,1,1.51-.4h17.47a.9.9,0,0,1,.71.42,1.72,1.72,0,0,1,.29,1,1.38,1.38,0,0,1-.2.81,1.1,1.1,0,0,1-.5.41,1.93,1.93,0,0,1-.65.14c-.23,0-.45,0-.66,0H247.37v10.09h13.25a1,1,0,0,1,.74.39,1.58,1.58,0,0,1,.32,1,1.53,1.53,0,0,1-.13.65,1.21,1.21,0,0,1-.31.42,1.19,1.19,0,0,1-.4.24,1.26,1.26,0,0,1-.41.07H247.37v10.4h15.26l.66,0a1.93,1.93,0,0,1,.65.14,1.17,1.17,0,0,1,.5.41,1.42,1.42,0,0,1,.2.82,1.69,1.69,0,0,1-.29,1,.9.9,0,0,1-.71.42h-.36l-.6,0H246.17Z" transform="translate(-127.38 -113.47)"/><path class="cls-2" d="M292.28,139.92a10.87,10.87,0,0,0,1.9-.49,7.67,7.67,0,0,0,1.37-.64,11.39,11.39,0,0,0,1-.64l.7-.49a1,1,0,0,1,.56-.19,1.29,1.29,0,0,1,.93.38,1.23,1.23,0,0,1,.39.92,2.3,2.3,0,0,1-.64,1.48,6,6,0,0,1-1.82,1.36,12.88,12.88,0,0,1-2.84,1,16,16,0,0,1-3.66.38h-.94a19.39,19.39,0,0,1-4.9-.54,10.53,10.53,0,0,1-3.45-1.51,7.72,7.72,0,0,1-2.23-2.33,11.61,11.61,0,0,1-1.27-3,18.06,18.06,0,0,1-.58-3.48c-.09-1.23-.14-2.5-.14-3.82v-.14c0-1.31.05-2.58.14-3.81a18.3,18.3,0,0,1,.58-3.49,11.76,11.76,0,0,1,1.27-3,8,8,0,0,1,2.23-2.34,10.54,10.54,0,0,1,3.45-1.52,19.39,19.39,0,0,1,4.9-.54h.94a16.59,16.59,0,0,1,3.66.38,12.87,12.87,0,0,1,2.84,1,6.13,6.13,0,0,1,1.82,1.36,2.27,2.27,0,0,1,.64,1.47,1.23,1.23,0,0,1-.39.92,1.3,1.3,0,0,1-.93.39,1,1,0,0,1-.56-.2c-.2-.13-.43-.29-.7-.49s-.59-.41-1-.64a7.67,7.67,0,0,0-1.37-.64,11.84,11.84,0,0,0-1.9-.49,15.07,15.07,0,0,0-2.59-.19H289a14,14,0,0,0-3.55.39,7.67,7.67,0,0,0-2.5,1.11,5.89,5.89,0,0,0-1.63,1.75,8.44,8.44,0,0,0-.95,2.3,16.34,16.34,0,0,0-.42,2.75c-.07,1-.1,2-.1,3.11v1c0,1.09,0,2.12.1,3.11a16.18,16.18,0,0,0,.42,2.75,8.24,8.24,0,0,0,.95,2.29,6,6,0,0,0,1.63,1.74,7.67,7.67,0,0,0,2.5,1.11,14,14,0,0,0,3.55.4h.68A15,15,0,0,0,292.28,139.92Z" transform="translate(-127.38 -113.47)"/><path class="cls-2" d="M321.87,136.24h-16l-1.86,5.2a2.93,2.93,0,0,1-.44.87,1.53,1.53,0,0,1-.52.45,1.57,1.57,0,0,1-.61.15c-.21,0-.43,0-.67,0a1.67,1.67,0,0,1-.59-.11,1,1,0,0,1-.43-.36,1.21,1.21,0,0,1-.16-.67,3.19,3.19,0,0,1,.21-1l8.92-24.39a6.29,6.29,0,0,1,.72-1.47,3,3,0,0,1,.85-.87,2.86,2.86,0,0,1,1-.43,6.15,6.15,0,0,1,1.18-.11h.83a6.09,6.09,0,0,1,1.16.11,2.86,2.86,0,0,1,1,.43,3,3,0,0,1,.85.87,6.71,6.71,0,0,1,.72,1.47L327,140.78a3.13,3.13,0,0,1,.2,1,1.4,1.4,0,0,1-.17.67.93.93,0,0,1-.42.36,1.62,1.62,0,0,1-.58.11c-.24,0-.46,0-.68,0a1.56,1.56,0,0,1-.6-.15,1.53,1.53,0,0,1-.52-.45,2.71,2.71,0,0,1-.44-.87Zm-15.06-2.58h14.12l-5.83-16.24a3.3,3.3,0,0,0-.46-.88.8.8,0,0,0-.54-.28h-.41a.82.82,0,0,0-.56.28,3,3,0,0,0-.46.88Z" transform="translate(-127.38 -113.47)"/><path class="cls-2" d="M339.57,116.57h-6v25.49a.7.7,0,0,1-.14.46,1,1,0,0,1-.36.27,1.59,1.59,0,0,1-.52.13,5.74,5.74,0,0,1-.6,0,3.54,3.54,0,0,1-1.13-.16.69.69,0,0,1-.48-.73v-27a1.21,1.21,0,0,1,.5-1,2.37,2.37,0,0,1,1.5-.4h7.19a23.71,23.71,0,0,1,5,.38,12.2,12.2,0,0,1,4.07,1.5,7.79,7.79,0,0,1,2.72,2.78,8.16,8.16,0,0,1,1,4.2v.23a9.46,9.46,0,0,1-.43,2.91,7.11,7.11,0,0,1-1.21,2.26,7.69,7.69,0,0,1-1.9,1.68,10.9,10.9,0,0,1-2.49,1.14l6.07,10.77a.76.76,0,0,1,.11.7.91.91,0,0,1-.46.42,2.31,2.31,0,0,1-.76.21,5.36,5.36,0,0,1-.76.05,2.38,2.38,0,0,1-.86-.16,1.27,1.27,0,0,1-.65-.58l-6-10.71c-.53.07-1.05.12-1.59.14s-1.08,0-1.66,0H336a1,1,0,0,1-.82-.38,1.74,1.74,0,0,1-.28-1.05,1.68,1.68,0,0,1,.29-1,1,1,0,0,1,.83-.36h3.87a20.74,20.74,0,0,0,3.89-.32,8.73,8.73,0,0,0,2.91-1,4.92,4.92,0,0,0,1.83-1.82,5.24,5.24,0,0,0,.65-2.7v-.56a5.74,5.74,0,0,0-.51-2.47,4.51,4.51,0,0,0-1.62-1.84,8,8,0,0,0-2.87-1.15,20.16,20.16,0,0,0-4.28-.4h-.29Z" transform="translate(-127.38 -113.47)"/><path class="cls-2" d="M358.91,142.73a3.14,3.14,0,0,1-1.06-.17,1.62,1.62,0,0,1-.69-.25.65.65,0,0,1-.28-.6V115.12a1.2,1.2,0,0,1,.52-1,2.41,2.41,0,0,1,1.51-.4h17.47a.89.89,0,0,1,.71.42,1.72,1.72,0,0,1,.29,1,1.38,1.38,0,0,1-.2.81,1.13,1.13,0,0,1-.49.41,2,2,0,0,1-.66.14c-.23,0-.45,0-.66,0H360.11v10.09h13.25a1,1,0,0,1,.74.39,1.58,1.58,0,0,1,.32,1,1.39,1.39,0,0,1-.13.65,1.21,1.21,0,0,1-.31.42,1.19,1.19,0,0,1-.4.24,1.25,1.25,0,0,1-.4.07H360.11v10.4h15.26l.66,0a2,2,0,0,1,.66.14,1.2,1.2,0,0,1,.49.41,1.42,1.42,0,0,1,.2.82,1.69,1.69,0,0,1-.29,1,.89.89,0,0,1-.71.42H376l-.6,0H358.91Z" transform="translate(-127.38 -113.47)"/></svg>