<svg xmlns="http://www.w3.org/2000/svg" xmlns:xlink="http://www.w3.org/1999/xlink" viewBox="0 0 100 100"><defs><style>.cls-1{isolation:isolate;}.cls-2{fill:#8dcad1;}.cls-3{fill:#00758d;}.cls-4{fill:url(#linear-gradient);}.cls-10,.cls-12,.cls-13,.cls-5{fill:#fff;}.cls-5{mix-blend-mode:soft-light;}.cls-6{fill:url(#radial-gradient);}.cls-7{fill:url(#linear-gradient-2);}.cls-8{fill:url(#linear-gradient-3);}.cls-9{fill:#007e90;}.cls-11{fill:#a5abad;}.cls-12{opacity:0.3;}.cls-13{opacity:0.5;}</style><linearGradient id="linear-gradient" x1="49.97" y1="79.45" x2="49.97" y2="20.58" gradientTransform="translate(88.7 -9.12) rotate(78.19)" gradientUnits="userSpaceOnUse"><stop offset="0" stop-color="#005262"/><stop offset="0.6" stop-color="#409eab"/><stop offset="1" stop-color="#8dcad1"/></linearGradient><radialGradient id="radial-gradient" cx="40.53" cy="-38.83" r="48.36" gradientTransform="translate(34.88 19.92) rotate(78.52) scale(0.83 0.83)" gradientUnits="userSpaceOnUse"><stop offset="0.18" stop-color="#80bec7"/><stop offset="1" stop-color="#26828f"/></radialGradient><linearGradient id="linear-gradient-2" x1="49.97" y1="70.46" x2="49.97" y2="27.38" gradientTransform="translate(87.58 -10.03) rotate(78.15)" gradientUnits="userSpaceOnUse"><stop offset="0" stop-color="#8dcad1"/><stop offset="1" stop-color="#66b1bc"/></linearGradient><linearGradient id="linear-gradient-3" x1="49.97" y1="69.61" x2="49.97" y2="30.83" gradientTransform="translate(88.72 -9.08) rotate(78.02)" gradientUnits="userSpaceOnUse"><stop offset="0" stop-color="#fff" stop-opacity="0.5"/><stop offset="1" stop-color="#afdadf"/></linearGradient></defs><g class="cls-1"><g id="Layer_1" data-name="Layer 1"><path class="cls-2" d="M34.57,77.58a34,34,0,0,1-4.07-2.73l-11.94,14A50.08,50.08,0,0,0,26.27,94Z"/><path class="cls-2" d="M23.15,66.64l-16,9a50.2,50.2,0,0,0,9.44,11.43l11.93-14A31.57,31.57,0,0,1,23.15,66.64Z"/><path class="cls-2" d="M40.29,80.07a30.58,30.58,0,0,1-3.37-1.32L28.64,95.16a51,51,0,0,0,6.74,2.66Z"/><path class="cls-2" d="M5.81,73.41l16-9a31.35,31.35,0,0,1-3.42-13H0A49.77,49.77,0,0,0,5.81,73.41Z"/><path class="cls-2" d="M50,0A50,50,0,0,0,0,48.69h18.4A31.58,31.58,0,0,1,81.57,50H100A50.06,50.06,0,0,0,50,0Z"/><path class="cls-2" d="M45.21,81.21c-.8-.13-1.6-.27-2.39-.45l-4.9,17.71a51.28,51.28,0,0,0,5.28,1Z"/><path class="cls-2" d="M45.81,99.79c1.37.11,2.75.21,4.16.21V81.6c-.73,0-1.44-.06-2.15-.11Z"/><path class="cls-3" d="M10.15,36.12l-.44,1.33L8.33,37l.44-1.33Zm5.13-1.67a4,4,0,0,1,2.38,2A3.64,3.64,0,0,1,16,41.56a4,4,0,0,1-3.1.17L10,40.85l.49-1.47c1.06.35,2,.67,2.84.93a2.47,2.47,0,0,0,1.87-.1,2.19,2.19,0,0,0,1-3.12,2.52,2.52,0,0,0-1.47-1.22L12,35l.49-1.47Z"/><path class="cls-3" d="M8.37,25.31A1.34,1.34,0,0,1,8.9,26a1,1,0,0,1-.08.87,2.37,2.37,0,0,1-.57.62A3.07,3.07,0,0,0,7.7,28a.5.5,0,0,0,.18.68l-.25.46a1.14,1.14,0,0,1-.5-1.47,2.61,2.61,0,0,1,.6-.64,2.41,2.41,0,0,0,.52-.51.49.49,0,0,0-.16-.74Zm6.85,5.3A2.32,2.32,0,0,1,15,32.2L8.84,28.8l.75-1.31Zm1.47-2.44A2.46,2.46,0,0,1,18,30.11a4.38,4.38,0,0,1-.65,2.72l-.61,1.06-1.21-.69.31-.55a3.56,3.56,0,0,0,.52-1.73,1.83,1.83,0,0,0-1-1.74l-5.11-2.81L11,25Z"/><path class="cls-3" d="M21,27.06l-.89,1.23L12.58,22.8l.9-1.22Z"/><path class="cls-3" d="M30,17.27A1.26,1.26,0,0,1,29.65,19L26.16,21.8a3.4,3.4,0,0,1-3.59.59,6.73,6.73,0,0,1-2.77-2.25L21,19.19a5.64,5.64,0,0,0,2,1.67,2.09,2.09,0,0,0,2.38-.2l2.86-2.3c.29-.24.26-.57-.07-1q-.14-.18-4.57-5.53l1.2-1C26.75,13.28,28.49,15.4,30,17.27Zm-4.68-.82-2.63,2.11-.25-1,.63-.51a.9.9,0,0,1-.49-.33,1.28,1.28,0,0,1,.16-1.84,1.22,1.22,0,0,1,1.1-.22l.07.83a.81.81,0,0,0-.53.11c-.19.14-.22.32,0,.56a.45.45,0,0,0,.33.17.83.83,0,0,0,.57-.21l.49-.4Z"/><path class="cls-3" d="M39.38,14.32,31.83,17.7l.09-1.58,3.67-1.64A3.1,3.1,0,0,0,34,13.08,1.72,1.72,0,0,0,32.73,13l-.56-1.25a3.14,3.14,0,0,1,2.56-.1A5,5,0,0,1,37,13.85l1.8-.8Z"/><path class="cls-3" d="M41.61,12.6,42,14l-3.23.87-.37-1.35Z"/><path class="cls-3" d="M48.31,13l-6.88.91-.19-1.4,2.34-.3a1.56,1.56,0,0,1-.36-.41,2.63,2.63,0,0,1-.49-1.22,2.05,2.05,0,0,1,.57-1.86A2.69,2.69,0,0,1,47,8.63l-.66,1.2a1.41,1.41,0,0,0-1.13-.4,1,1,0,0,0-.91,1.21,1.46,1.46,0,0,0,1.84,1.23l1.46-.19Z"/><path class="cls-3" d="M56.78,13.48l-2.08-.14a3.93,3.93,0,0,1-3.8,2.89L50,15a3.08,3.08,0,0,0,3.05-1.74l-1-.07a2.48,2.48,0,0,1-2.24-2.74,2.64,2.64,0,0,1,2.88-2.54,2.21,2.21,0,0,1,2.33,2.45L54.94,12l1.93.13Zm-3.37-1.63c.06-1.19.11-1.83.11-1.95A1,1,0,0,0,52.65,9c-.67,0-1.22.54-1.28,1.5a1.19,1.19,0,0,0,1,1.32Z"/><path class="cls-3" d="M59.63,12.91l-.29,1.37-3.26-.7.29-1.37Z"/><path class="cls-3" d="M66.19,13.73a2.43,2.43,0,0,1-3.33,1.7l-4-1.43.48-1.32,1.65.59a2.79,2.79,0,0,1,.15-1.34,2.47,2.47,0,0,1,3.39-1.68,2.66,2.66,0,0,1,1.67,3.48Zm-1.41-.49a1.6,1.6,0,0,0,0-1.16,1.05,1.05,0,0,0-.63-.61,1,1,0,0,0-.87.08,1.74,1.74,0,0,0-.67.93,1.6,1.6,0,0,0,0,1.16,1,1,0,0,0,.63.6C63.84,14.46,64.46,14.12,64.78,13.24Z"/><path class="cls-3" d="M66.27,18.83A3.06,3.06,0,0,0,70.64,18l2.3-3.39,1.26.86-1.35,2a1.5,1.5,0,0,0,.23,1.92l1.32.9-.79,1.16-1.24-.85a1.49,1.49,0,0,1-.61-1.49,4.08,4.08,0,0,1-5.38,1.22C66.37,20,66.33,19.48,66.27,18.83Zm8.51-4.37-1.16-.78.82-1.21,1.16.79Z"/><path class="cls-3" d="M76.5,22.34l-.92,1.05-2.52-2.2L74,20.13Z"/><path class="cls-3" d="M81.21,29.84l-1.09-1.31-4.84-5.76,1.08-.9,4.08,4.86c1.13-1.32,1.25-2.52.36-3.58A3,3,0,0,0,79.18,22l.53-1.21a3.78,3.78,0,0,1,2.22,1.47,3.45,3.45,0,0,1,.85,2.93,5.38,5.38,0,0,1-1.4,2.67l.91,1.09Zm-4.52-2-.89-1.06,1.12-.94.89,1.07Z"/><path class="cls-3" d="M83.56,31.55l-1.2.73-1.73-2.86,1.2-.72Z"/><path class="cls-3" d="M85.3,38.86l-3.1-7.28L83.51,31,86,36.87c1.45-.93,1.91-2,1.37-3.3A3,3,0,0,0,86.17,32L87,31A3.77,3.77,0,0,1,88.72,33a3.5,3.5,0,0,1-.38,3.62A7.12,7.12,0,0,1,85.3,38.86Z"/><path class="cls-3" d="M86,41.88l-.39-1.47,9-2.44L95,39.43Z"/><circle class="cls-4" cx="49.97" cy="50.02" r="29.44" transform="translate(-9.22 88.69) rotate(-78.19)"/><path class="cls-5" d="M49.25,22.91V20.58a28.81,28.81,0,0,1,22.62,9.78L70,31.73A27.7,27.7,0,0,0,49.25,22.91Z"/><path class="cls-5" d="M71.87,34l2-1.22a28.85,28.85,0,0,1,3.23,5.73l-2.3.52A29.11,29.11,0,0,0,71.87,34Z"/><circle class="cls-6" cx="49.97" cy="48.92" r="27.99" transform="translate(-7.92 88.15) rotate(-78.52)"/><circle class="cls-7" cx="49.97" cy="48.92" r="21.54" transform="translate(-8.17 87.77) rotate(-78.15)"/><circle class="cls-8" cx="49.97" cy="50.22" r="19.39" transform="translate(-9.54 88.67) rotate(-78.02)"/><circle class="cls-9" cx="32.82" cy="49.29" r="1.14"/><circle class="cls-9" cx="67.05" cy="49.29" r="1.14"/><circle class="cls-9" cx="50.4" cy="31.04" r="1.14"/><circle class="cls-9" cx="50.4" cy="66.81" r="1.14"/><path class="cls-10" d="M55.82,21.54s3.46,9.11,11,5A24.38,24.38,0,0,0,55.82,21.54Z"/><path class="cls-11" d="M62.57,41.56A1.79,1.79,0,1,0,60,39L51.09,48l-1.27,1.27c-1.58,1.58-3.74,1.35-4.44.65L48.55,53a1.8,1.8,0,0,0,2.54,0Z"/><path class="cls-9" d="M49.82,49.24c-1.58,1.58-3.74,1.35-4.44.65L45,49.5l-3-3a1.8,1.8,0,1,1,2.54-2.54Z"/><path class="cls-12" d="M45.08,28.77l2.43,6.85s10.36.16,15.52,6.47l5.16-2.54C67.05,35.13,57.87,25.71,45.08,28.77Z"/><path class="cls-13" d="M37.55,65.23l2.51-3.5a24,24,0,0,0,14.49,3.4l1.27,3.79A21.09,21.09,0,0,1,37.55,65.23Z"/></g></g></svg>