<svg id="Layer_1" data-name="Layer 1" xmlns="http://www.w3.org/2000/svg" xmlns:xlink="http://www.w3.org/1999/xlink" viewBox="0 0 739 400"><defs><style>.cls-1{fill:none;}.cls-2{opacity:0.6;}.cls-3{clip-path:url(#clip-path);}.cls-4{fill:#d4e9ec;}</style><clipPath id="clip-path"><rect class="cls-1" x="0.23" width="738.53" height="400"/></clipPath></defs><g class="cls-2"><g class="cls-3"><path class="cls-4" d="M695.05,234.31C679.58,251,662.43,267,648.4,282.16,611.08,322.37,569,361.84,520.91,388.84c-42.86,24.06-118.23,2.39-165.52-2-62.56-5.87-137.91-49.34-180.63-93.62-17.79-18.43-27.82-40.63-44.24-57.87-22.08-23.18-54.75-32.75-77.78-56.94-18.17-19.09-42-43-49.85-68.93-20.92-69,87.58-41.2,123.37-41.51,31.88-.28,60.8-10.08,92.7-10.3,26.06-.19,52.14,0,78.2,0,69.37,0,137.19-14.75,197.88-46.24,32.56-16.89,76.52-15,106.31,5.8,19.24,13.43,32.53,30.23,54.12,40.66,16.11,7.78,34.65,10.74,49.47,21,32.1,22.23,41.42,66.33,27.66,101.75-7.12,18.34-21.43,36.37-37.55,53.72"/></g></g></svg>