<svg xmlns="http://www.w3.org/2000/svg" xmlns:xlink="http://www.w3.org/1999/xlink" viewBox="0 0 604 450"><defs><style>.cls-1{fill:#ffc73c;}.cls-2{fill:#58bd7a;}.cls-3{fill:#a4d578;}.cls-4{isolation:isolate;}.cls-5{fill:#e2eff5;}.cls-6{mix-blend-mode:multiply;}.cls-7{fill:#dff3fd;}.cls-8{fill:#57b8e8;}.cls-9{fill:#0b2d4e;}.cls-10{fill:#efb126;}.cls-11{fill:#061f33;}.cls-12{clip-path:url(#clip-path);}.cls-13,.cls-19{fill:#fff;}.cls-14{fill:#6cb9c2;}.cls-15{fill:#1a718c;}.cls-16{fill:#75b5c1;}.cls-17{fill:#f8a17a;}.cls-18{fill:#e5785c;}.cls-19{opacity:0.2;}.cls-20,.cls-24,.cls-26{fill:none;stroke-miterlimit:10;}.cls-20{stroke:#0b2d4e;stroke-width:4px;}.cls-21{fill:#2f95d2;}.cls-22{fill:#73b8d4;}.cls-23{clip-path:url(#clip-path-2);}.cls-24{stroke:#a3d577;}.cls-25{clip-path:url(#clip-path-3);}.cls-26{stroke:#5abc7c;}.cls-27{fill:#fcca42;}.cls-28{fill:#e7b83f;}</style><clipPath id="clip-path"><path class="cls-1" d="M237,276.2c-3.09-11.28-4.69-22.81,2.31-30.49,3.16-3.47,8.79-5.89,13.4-7.61,9-3.35,18.17-7.85,27.8-9.31,10.14-1.54,21.42-2.49,31.53-.29a81.7,81.7,0,0,1,18.17,6.78c7.71,3.75,13.2,6.27,15.67,14a130.23,130.23,0,0,1,5.34,26.16c2.72,25.85-.88,51.76-.8,77.62,0,2.54,0,5.18-1.32,7.47-2.54,4.51-9.46,4.57-14.44,4.56L285.38,365a96.93,96.93,0,0,0-18.46,1.85,11.84,11.84,0,0,1-12.62-5.73c-2.45-4.1-2.64-8.88-2.9-13.49a253.69,253.69,0,0,0-8.8-53.23C241.24,289.46,238.84,283,237,276.2Z"/></clipPath><clipPath id="clip-path-2"><path class="cls-2" d="M95.24,198.49a30.63,30.63,0,0,0-16.87-7.34c-3.1-.3-6.5.06-8.83,2.13-6.13,5.46-5.5,18.44-5.39,26,.26,18.24,4.88,36.22,12.14,52.88A180.64,180.64,0,0,0,88.92,296c2.2,3.5,4.53,6.91,6.65,10.46.88,1.49,6.82,10.72,5.7,12.2,5.17-6.81,8.06-15.14,9.52-23.57,2.16-12.47,4.51-25.32,3.86-38.2a151.6,151.6,0,0,0-6.7-39.14A42.59,42.59,0,0,0,95.24,198.49Z"/></clipPath><clipPath id="clip-path-3"><path class="cls-3" d="M121.34,239.53a20.25,20.25,0,0,1,11.81-2.76c2,.18,4.21.81,5.48,2.44,3.33,4.26,1.37,12.61.4,17.51a91,91,0,0,1-14.15,32.86,118.4,118.4,0,0,1-11,13.94c-1.84,2-3.76,3.94-5.55,6-.75.86-5.7,6.14-5.14,7.24a35.47,35.47,0,0,1-3.38-16.42c.08-8.35.08-17,2-25.24a100.11,100.11,0,0,1,9-24.58A28.13,28.13,0,0,1,121.34,239.53Z"/></clipPath></defs><g class="cls-4"><g id="Layer_1" data-name="Layer 1"><path class="cls-5" d="M.35,244.41c0-20.5,0-41,0-61.51C.29,145.53,0,128.11,0,90.74,0-11,81.48,0,101.61,0H226.39C252.17,0,280-.46,300.87,14.7,318,27.13,311.3,27.52,323.32,44.92c7.43,10.76,21,29,34.27,31.9,7.1,1.55,14.47.85,21.74.85A111.17,111.17,0,0,1,425.9,88c17.77,8.25,34.22,23,37.42,42.28,2.29,13.83-2.44,28.36,1.25,41.88,4.23,15.47,18.37,25.95,32.22,34s29,15.58,37.88,28.9c5.37,8,8.65,19,10,28.47,1.63,11.15-1.55,21.88,3.48,32.68,3.42,7.34,9.52,13.06,15.79,18.19,9.51,7.8,19.82,14.8,27.83,24.14s13.59,21.72,11.36,33.81c-1.75,9.53-8.29,17.81-16.6,22.77-10.12,6-23.49,7.5-34.63,11.3-15,5.13-32.12,5.74-47.82,6.38-63.36,2.59-126.76-4.1-190.09-.22-29.5,1.81-58,3.87-87,9.44-32.08,6.15-64,13.06-95.91,20-21.33,4.63-43,9.48-64.77,7.54S0,440.87,0,419.05C0,403,.35,386,.35,365.57.35,325.18.44,284.8.35,244.41Z"/><g class="cls-6"><rect class="cls-7" x="85.98" y="195.49" width="34.19" height="156.61"/><rect class="cls-7" x="120.18" y="243.55" width="51.6" height="108.55" transform="translate(291.95 595.66) rotate(-180)"/><rect class="cls-7" x="55.2" y="275.87" width="51.6" height="76.23" transform="translate(162 627.97) rotate(-180)"/><rect class="cls-7" x="92.41" y="187.84" width="27.77" height="7.66"/><rect class="cls-7" x="97.46" y="180.18" width="22.72" height="7.66"/><rect class="cls-7" x="102.28" y="172.53" width="17.9" height="7.66"/><rect class="cls-7" x="220.96" y="195.49" width="34.19" height="156.61"/><rect class="cls-7" x="127.43" y="144.79" width="34.19" height="207.32"/><rect class="cls-7" x="255.15" y="291.5" width="68.38" height="60.6"/><rect class="cls-7" x="169.37" y="120.33" width="68.69" height="231.77"/><rect class="cls-7" x="227.39" y="187.84" width="27.77" height="7.66"/><rect class="cls-7" x="232.43" y="180.18" width="22.72" height="7.66"/><rect class="cls-7" x="237.25" y="172.53" width="17.9" height="7.66"/><rect class="cls-7" x="286.47" y="195.49" width="34.19" height="156.61"/><rect class="cls-7" x="252.28" y="221.96" width="34.19" height="130.14" transform="translate(538.75 574.07) rotate(-180)"/><rect class="cls-7" x="320.66" y="160.37" width="51.6" height="191.73" transform="translate(692.92 512.47) rotate(-180)"/><rect class="cls-7" x="292.9" y="187.84" width="27.77" height="7.66"/><rect class="cls-7" x="297.94" y="180.18" width="22.72" height="7.66"/><rect class="cls-7" x="302.76" y="172.53" width="17.9" height="7.66"/><rect class="cls-7" x="421.45" y="195.49" width="34.19" height="156.61"/><rect class="cls-7" x="455.64" y="221.96" width="34.19" height="130.14"/><rect class="cls-7" x="379.21" y="200.25" width="34.19" height="151.85"/><rect class="cls-7" x="489.83" y="276.5" width="34.19" height="75.6"/><rect class="cls-7" x="369.85" y="237.75" width="68.69" height="114.35"/><rect class="cls-7" x="427.87" y="187.84" width="27.77" height="7.66"/><rect class="cls-7" x="464.82" y="318.93" width="27.77" height="7.66"/><rect class="cls-7" x="432.92" y="180.18" width="22.72" height="7.66"/><rect class="cls-7" x="437.74" y="172.53" width="17.9" height="7.66"/><rect class="cls-7" x="263.07" y="236.64" width="44.95" height="7.66"/><rect class="cls-7" x="263.07" y="264.07" width="44.95" height="7.66"/><rect class="cls-7" x="263.07" y="291.5" width="44.95" height="7.66"/><rect class="cls-7" x="435.35" y="291.5" width="44.95" height="7.66"/><rect class="cls-7" x="435.35" y="318.93" width="44.95" height="7.66"/></g><path class="cls-8" d="M338.8,177.59c8.13,8.37.76,28.82-12.22,25.86-13.93-3.18-11.84-24.9.77-28.47C332.26,173.59,336.18,174.9,338.8,177.59Z"/><path class="cls-9" d="M274.17,204.57a23.16,23.16,0,0,0,10.95,6.29c8.12,1.86,15.75-1.72,22.52-5.84,7.24-4.4,14.46-8.86,21.29-13.88,4.89-3.59,9.88-7.41,12.93-12.78,3.52-6.22,3.73-13.7,3-20.65-.49-4.74,1.72-9,2.7-13.52,1.89-8.81-.05-19.2-8.26-24.26-4.19-2.57-8.58-2.19-13-.3-3.38,1.46-6.53,3.48-10.07,4.48-7.54,2.14-15.71-.8-23.09-2.32-5.34-1.1-11.19-1.68-16.46.09-5.86,2-8.66,6.25-11.86,11.22-2.74,4.24-6.89,7.45-10.2,11.23a19.82,19.82,0,0,0-4.29,18c2.19,9.57,7.7,17.8,12.48,26.19C265.88,193.87,269.45,200,274.17,204.57Z"/><path class="cls-10" d="M334.61,295.44c-9.75-15-15.82-33.47-7.34-50.45.86-1.72,1.89-3.59,3.71-4.2,3.93-1.3,9.25.1,12.66,2.1,11.84,7,19.08,20,25.73,31.64,6.9,12.08,12.9,24.65,19.84,36.71,2.82,4.88,5.65,9.83,7.16,15.26a24.18,24.18,0,0,1-.33,14.86c-7.8,20.12-29.22-4.53-35.74-12A298.31,298.31,0,0,1,334.61,295.44Z"/><path class="cls-11" d="M286,204.32a12.7,12.7,0,0,0,3.64,2.73,15.85,15.85,0,0,0,11.6.51A37.52,37.52,0,0,0,311.69,202c8.76-6.19,19.6-14.38,24.82-23.9,3.21-5.87,5.6-12.8,2.52-19.2a17.84,17.84,0,0,0-14.16-10.14,2.89,2.89,0,0,0-1.49.14,3.07,3.07,0,0,0-1.14,1.25c-2.22,3.64-4,7.6-6.7,10.92A39.84,39.84,0,0,1,305,169.74c-6.43,3.9-13.48,6.78-19.52,11.24-4.37,3.23-4.48,10.49-3.42,15.53A16.55,16.55,0,0,0,286,204.32Z"/><path class="cls-1" d="M237,276.2c-3.09-11.28-4.69-22.81,2.31-30.49,3.16-3.47,8.79-5.89,13.4-7.61,9-3.35,18.17-7.85,27.8-9.31,10.14-1.54,21.42-2.49,31.53-.29a81.7,81.7,0,0,1,18.17,6.78c7.71,3.75,13.2,6.27,15.67,14a130.23,130.23,0,0,1,5.34,26.16c2.72,25.85-.88,51.76-.8,77.62,0,2.54,0,5.18-1.32,7.47-2.54,4.51-9.46,4.57-14.44,4.56L285.38,365a96.93,96.93,0,0,0-18.46,1.85,11.84,11.84,0,0,1-12.62-5.73c-2.45-4.1-2.64-8.88-2.9-13.49a253.69,253.69,0,0,0-8.8-53.23C241.24,289.46,238.84,283,237,276.2Z"/><g class="cls-12"><path class="cls-10" d="M276.7,243.4c-3.47-5.61-4.26-12.61.29-18,2.08-2.47,5.77-2.74,8.91-2.8a77.81,77.81,0,0,1,18.45,1.88c5.75,1.29,11.61,3.47,14.11,9a13.44,13.44,0,0,1-1.24,12.71,16.27,16.27,0,0,1-10,6.92c-6.62,1.51-14.37,1.31-20.68-1.23A21.39,21.39,0,0,1,276.7,243.4Z"/><path class="cls-10" d="M341.19,364.13c-6.61,3.12-13.83,4.69-21,5.9-20.16,3.37-40.72,4.07-61.14,3.1-4.37-.21-9.1-.64-12.33-3.6-2.39-2.2-3.52-5.44-4.33-8.59-2.73-10.74-2.69-22-2.64-33q.07-13,.14-25.94c0-3-1.94-21.33,2.74-21.13a2.77,2.77,0,0,1,1.38.58c2.33,1.67,3.52,4.46,4.61,7.11,3.42,8.3,6.28,21.6,13.39,27.41,7.46,6.11,16,8.95,25.09,11.88,15.68,5.08,33.17,7.28,46.45,17.74,2.21,1.74,4.32,3.67,6.37,5.6,1.84,1.74,4.37,3.54,5.48,6C347.08,360.92,344.38,362.63,341.19,364.13Z"/></g><rect class="cls-13" x="55.07" y="352.5" width="468.95" height="16.88"/><path class="cls-1" d="M201.62,303.07c-2.49,4.5-5,9-7.4,13.54-4.94,9.2-14.11,29.64.57,34.69,7.39,2.55,11.62.06,16.51-5.33a311.28,311.28,0,0,0,46.77-67.75c4.65-9.13,17-32.9,2-38.34A18.28,18.28,0,0,0,245.43,241a28.78,28.78,0,0,0-5.54,4.1c-10.83,9.65-18.54,22.11-25.4,34.74C210.25,287.6,205.91,295.33,201.62,303.07Z"/><path class="cls-1" d="M276.41,336.07c-1.29-.22-2.59-.43-3.88-.63Q263.07,334,253.71,332a322,322,0,0,0-37.38-6.11c-1.33-.13-2.67-.24-4-.34-5.64-.43-11.55-.57-16.71,2.05s-9.25,8.86-8,14.88c.89,4.22,4.2,7.41,7.88,9s7.71,1.89,11.68,2.16l38.53,2.6,19.08,1.31c6.07.42,12.24,1.27,18.32,1.28a12.41,12.41,0,0,0,7.62-2.15c3-2.33,4.8-7.3,5.09-11.18.14-2-.26-4.47-1.85-5.72a6.33,6.33,0,0,0-3-1.06C286.15,337.82,281.29,336.89,276.41,336.07Z"/><rect class="cls-14" x="326.14" y="340.63" width="60.91" height="11.92" transform="translate(713.19 693.18) rotate(-180)"/><path class="cls-14" d="M376.6,341.79,392,263.53a4.41,4.41,0,0,1,4.32-3.56H498.48a4.39,4.39,0,0,1,3.54,1.82h0l4.72,5.58-4.19-.92-15.13,77.05a4.41,4.41,0,0,1-4.32,3.55H380.92A4.4,4.4,0,0,1,376.6,341.79Z"/><path class="cls-15" d="M487.78,352.55H385.59a4.4,4.4,0,0,1-4.32-5.25L396.64,269a4.41,4.41,0,0,1,4.32-3.55H503.15a4.4,4.4,0,0,1,4.32,5.25L492.1,349A4.4,4.4,0,0,1,487.78,352.55Z"/><path class="cls-16" d="M455.64,307.08a11.94,11.94,0,0,1-11.27,9.56c-5.28,0-8.73-4.28-7.71-9.56s6.06-9.56,11.26-9.56S456.58,301.8,455.64,307.08Z"/><path class="cls-17" d="M291,355.24c3,.62,5.4,3.29,8.43,4.18a10.32,10.32,0,0,0,6.53-.48c1.91-.71,3.85-1.09,5.8-1.72,1.53-.49,3.58-1.52,5.22-1.18,4.29.9,8.57,3.95,12.46,5.94a4.61,4.61,0,0,0,2.8.72c1-.19,1.77-1.36,1.22-2.17,1.12,1.05,2.6,3.14,4.41,2.33a1.51,1.51,0,0,0,.77-2,6.18,6.18,0,0,0,2.13,1.72,2.09,2.09,0,0,0,2.49-.58,2.42,2.42,0,0,0,.33-1.24,9.47,9.47,0,0,0-1-4.32c-3.06-6.69-10-11.65-15.89-15.63a12.49,12.49,0,0,0-3.31-1.79,11.69,11.69,0,0,0-3.34-.37,66.65,66.65,0,0,0-21.56,3.49c-1.5.5-3.15.07-4.64-.21a7.31,7.31,0,0,0-3.35-.1,5.77,5.77,0,0,0-2.88,2.34,10.81,10.81,0,0,0-2.23,6.73c.12,1.79.26,3.72,2.37,4.1.85.15,1.73.06,2.6.15A4.72,4.72,0,0,1,291,355.24Z"/><path class="cls-17" d="M289.65,247.1c-4.47-1.43-8.15-4.21-9.52-8.62-1.26-4,.72-8.51,1.07-12.55a76.8,76.8,0,0,0,.12-11.65,50.92,50.92,0,0,1,0-10.9c.31-2,1.43-1.69,3.5-2.51a17.92,17.92,0,0,1,6.63-.81c4.6,0,16.58-.32,19.43,3.71,1.3,1.86,1.4,4.19,1.47,6.39.07,2.66.54,6.11,1,9.83.19,1.65.07,3.3.33,4.94a31.15,31.15,0,0,0,1.59,5.37c2.31,6.66.15,13-7.06,16A28.43,28.43,0,0,1,289.65,247.1Z"/><path class="cls-18" d="M281.32,203.38c.31-2,1.43-1.69,3.5-2.51a18,18,0,0,1,6.63-.81c4.6,0,16.59-.32,19.43,3.71,1.3,1.86,1.41,4.19,1.47,6.39.07,2.66.54,6.11,1,9.83.2,1.65.08,3.3.33,4.94a21.94,21.94,0,0,0,1.15,4.1,24.32,24.32,0,0,1-14.15.88c-8.37-2.06-14.72-7.27-19.24-14,0-.53,0-1.06-.07-1.58A50.28,50.28,0,0,1,281.32,203.38Z"/><path class="cls-17" d="M274.64,177.13a56.27,56.27,0,0,1,2.47-16.8c6.81-20.87,32.85-26,48.52-11.05C343.11,166,336.42,205.93,318,220a20.63,20.63,0,0,1-17.59,3.46C282.33,218.57,274.53,196.31,274.64,177.13Z"/><path class="cls-18" d="M277.11,160.33c6.81-20.87,32.85-26,48.52-11.05a28.3,28.3,0,0,1,5,6.52,21.27,21.27,0,0,1-2.74,2,80.14,80.14,0,0,1-21.25,8.9c-3.21.82-6.59,1.5-9.22,3.52a13.54,13.54,0,0,0-3.57,4.31,40.49,40.49,0,0,0-2.63,6.39,75.49,75.49,0,0,0-3,14.67,2.27,2.27,0,0,1-.53,1.42,1.88,1.88,0,0,1-1.39.39c-2.88-.07-4.27-2.84-6.52-4.3-1.36-.89-2.71-1.79-4-2.76a72.28,72.28,0,0,1-1.16-13.18A56.27,56.27,0,0,1,277.11,160.33Z"/><path class="cls-9" d="M290.92,173.69a40.12,40.12,0,0,0-1.79,6.68,76.14,76.14,0,0,0-1.07,14.93,2.27,2.27,0,0,1-.34,1.48,1.91,1.91,0,0,1-1.32.57c-2.88.3-4.61-2.26-7-3.42a39,39,0,0,1-7.24-4.15c-6.24-4.89-4.81-13-4.61-20.13.11-4,.22-7.94,1.38-11.71A28.76,28.76,0,0,1,275.54,147a42.58,42.58,0,0,1,33.52-13.07c6.11.38,13,3,17.35,7.37,3.75,3.79-.82,8.94-3.91,11.4a80.18,80.18,0,0,1-19.92,11.57c-3.08,1.23-6.34,2.34-8.68,4.68A13.74,13.74,0,0,0,290.92,173.69Z"/><path class="cls-17" d="M278.07,177.64c-8-4.37-10.48,6.71-9.1,12.23a17.73,17.73,0,0,0,2.88,6.38c1.91,2.52,7.36,6.71,10.5,3.95,1.42-1.25,1.57-3.38,1.61-5.28C284.08,189.83,283.49,180.61,278.07,177.64Z"/><path class="cls-13" d="M159.32,305.83a9.27,9.27,0,0,1-.21-7,27,27,0,0,1,3.22-6.36,29.22,29.22,0,0,0,3.53-7.17,15.43,15.43,0,0,0-.18-8.58c-1.68-5.41-5.11-9.39-7.48-13.47a19.18,19.18,0,0,1-2.54-6.48,11.15,11.15,0,0,1,.84-7,10.24,10.24,0,0,0-3,7.18,18.34,18.34,0,0,0,1.6,7.89c2.06,4.91,5.14,8.89,6.34,13.2a11.51,11.51,0,0,1,.36,6.27,33.65,33.65,0,0,1-2.51,6.59,22.75,22.75,0,0,0-2.29,7.58C156.74,301.09,157.34,304.1,159.32,305.83Z"/><path class="cls-14" d="M127.78,332A13.29,13.29,0,0,0,141,345.4a13.12,13.12,0,0,0,4.17-.69,15.18,15.18,0,0,0,28.32-7.59V308.81H143.09v10a13.48,13.48,0,0,0-2.12-.18A13.28,13.28,0,0,0,127.78,332Zm4.71,0a8.54,8.54,0,0,1,8.48-8.6,8.27,8.27,0,0,1,2.12.28v13.42a15.41,15.41,0,0,0,.33,3.14,8.31,8.31,0,0,1-2.45.37A8.54,8.54,0,0,1,132.49,332Z"/><path class="cls-19" d="M168.92,335.79h0a1.64,1.64,0,0,0,1.64-1.64V313a1.65,1.65,0,0,0-1.64-1.64h0a1.65,1.65,0,0,0-1.65,1.64v21.17A1.64,1.64,0,0,0,168.92,335.79Z"/><path class="cls-15" d="M150.1,308.81v35.8a7.69,7.69,0,0,0,7.69,7.69h-7a7.69,7.69,0,0,1-7.69-7.69v-35.8Z"/><path class="cls-20" d="M342.23,155.4c3.44-9.63,10.34-17.39,6.37-28.2a16.19,16.19,0,0,0-15.06-10.62,17.86,17.86,0,0,0-9.12,2.33c-3.3,1.89-5.44,5-9.27,6-9,2.42-18.3-4.43-26.89-6s-17.56,1.21-21.73,9.34c-1.64,3.2-2.33,6.9-4.49,9.78-3.61,4.81-10.62,6.46-13.48,11.75-4.65,8.64,4.92,21.12,9.79,27.76"/><path class="cls-21" d="M304.15,214.17a39.51,39.51,0,0,0,5.92-.44l-.35-2.4A36.51,36.51,0,0,1,289,208.44a27.65,27.65,0,0,1-4.49-2.58,21.2,21.2,0,0,1-5.81-6.41l-2.09,1.23a23.68,23.68,0,0,0,6.48,7.15,29.12,29.12,0,0,0,4.89,2.81A38.35,38.35,0,0,0,304.15,214.17Z"/><path class="cls-21" d="M317.09,209.42c-2.93-2.51-9.44-2.3-11.59.31a4.27,4.27,0,0,0,.65,6c2.07,1.94,4.64,1.82,7.22,1.24C316.61,216.26,320.62,212.45,317.09,209.42Z"/><path class="cls-22" d="M319.63,133.49c-.71,0-1.41.07-2.11,0s-1.41,0-2.11-.07c-1.4-.1-2.8-.24-4.19-.45-2.78-.39-5.54-.94-8.35-1.31a42,42,0,0,0-8.54-.4c-.72,0-1.43.12-2.15.23a20,20,0,0,0-2.13.42,16,16,0,0,0-4.07,1.6,13.54,13.54,0,0,0-1.82,1.28,13,13,0,0,0-1.55,1.6,12.17,12.17,0,0,0-1.22,1.86,9.85,9.85,0,0,0-.79,2.1,8.52,8.52,0,0,0-.23,2.25,11,11,0,0,0,.33,2.19c.16.7.33,1.37.44,2a7.3,7.3,0,0,1,.06,2,12.19,12.19,0,0,1-1.19,3.88c-.59,1.26-1.3,2.47-1.95,3.73a17.29,17.29,0,0,0-1.55,4,8.9,8.9,0,0,0-.24,2.12,7,7,0,0,0,.37,2.09,7.63,7.63,0,0,1,.2-4.13,17.24,17.24,0,0,1,1.74-3.78c.71-1.21,1.48-2.4,2.14-3.67a12.36,12.36,0,0,0,1.42-4.12,8.4,8.4,0,0,0,0-2.24c-.1-.73-.27-1.43-.41-2.11a10,10,0,0,1-.26-2,7.12,7.12,0,0,1,.24-1.94,10.18,10.18,0,0,1,4.86-6.07,18.56,18.56,0,0,1,7.83-2.15,43.89,43.89,0,0,1,8.34.18c2.79.3,5.59.71,8.41,1,1.41.12,2.82.19,4.24.2A33.17,33.17,0,0,0,319.63,133.49Z"/><path class="cls-8" d="M274.7,174.49c11.31,2.9,15.68,24.2,3.06,28.43-13.55,4.56-23.09-15.07-14.19-24.68C267,174.49,271.06,173.56,274.7,174.49Z"/><path class="cls-21" d="M271,177.22c7.8,1.26,12.61,17.84,4.56,22.4-8.64,4.9-16.75-9.86-11.66-18.37C265.88,177.94,268.48,176.82,271,177.22Z"/><path class="cls-8" d="M269.42,176l3-.35c-2.05-17.67-1.18-40.26,14.59-47.47,7.46-3.42,14.27-5.86,26.41-3.48a11.27,11.27,0,0,0,3.14-.89c-11-5.36-22.76-2.08-30.82,1.61C268.34,133.37,267.26,157.31,269.42,176Z"/><path class="cls-2" d="M95.24,198.49a30.63,30.63,0,0,0-16.87-7.34c-3.1-.3-6.5.06-8.83,2.13-6.13,5.46-5.5,18.44-5.39,26,.26,18.24,4.88,36.22,12.14,52.88A180.64,180.64,0,0,0,88.92,296c2.2,3.5,4.53,6.91,6.65,10.46.88,1.49,6.82,10.72,5.7,12.2,5.17-6.81,8.06-15.14,9.52-23.57,2.16-12.47,4.51-25.32,3.86-38.2a151.6,151.6,0,0,0-6.7-39.14A42.59,42.59,0,0,0,95.24,198.49Z"/><g class="cls-23"><path class="cls-24" d="M101.86,325.18c1.76-22-.17-44.12-4.39-65.73-4-20.61-9.26-41.29-17.11-60.8a187.2,187.2,0,0,0-8.8-18.89"/><path class="cls-24" d="M54.43,209.35a132.54,132.54,0,0,1,30.72,15.29c2.42,1.62,3.76,2.11,5.78,4.21"/><path class="cls-24" d="M96.23,252.35a90.49,90.49,0,0,0-34.44-13"/><path class="cls-24" d="M100.55,280.67a77.41,77.41,0,0,0-34-16.78"/><path class="cls-24" d="M90.39,228.13a96.23,96.23,0,0,1,8.24-33.77"/><path class="cls-24" d="M96.09,251.39a85.07,85.07,0,0,1,20.49-27.8"/><path class="cls-24" d="M101.2,281.47a31.81,31.81,0,0,1,3.44-9.29,57,57,0,0,1,6.9-9.26c1.81-2.1,3.67-4.17,5.55-6.21"/></g><path class="cls-3" d="M121.34,239.53a20.25,20.25,0,0,1,11.81-2.76c2,.18,4.21.81,5.48,2.44,3.33,4.26,1.37,12.61.4,17.51a91,91,0,0,1-14.15,32.86,118.4,118.4,0,0,1-11,13.94c-1.84,2-3.76,3.94-5.55,6-.75.86-5.7,6.14-5.14,7.24a35.47,35.47,0,0,1-3.38-16.42c.08-8.35.08-17,2-25.24a100.11,100.11,0,0,1,9-24.58A28.13,28.13,0,0,1,121.34,239.53Z"/><g class="cls-25"><path class="cls-26" d="M102,320.91a160.13,160.13,0,0,1,10.66-42.11c5.06-12.89,10.91-25.68,18.32-37.4a125.35,125.35,0,0,1,7.94-11.21"/><path class="cls-26" d="M146.52,251.42a87.49,87.49,0,0,0-21.74,6.27,18.1,18.1,0,0,0-4.25,2"/><path class="cls-26" d="M114.3,274.35A59.78,59.78,0,0,1,138.19,270"/><path class="cls-26" d="M108.14,292.2a51.11,51.11,0,0,1,24.08-6.84"/><path class="cls-26" d="M121,259.33a63.62,63.62,0,0,0-1.33-22.88"/><path class="cls-26" d="M114.51,273.74a56,56,0,0,0-10-20.46"/><path class="cls-26" d="M107.62,292.64a20.7,20.7,0,0,0-1.13-6.43,36.73,36.73,0,0,0-3.37-6.83q-1.4-2.37-2.86-4.69"/></g><path class="cls-27" d="M84.79,311.24H121c0,20.43-6.34,40.86-6.34,40.86H91.14S84.79,331.76,84.79,311.24Z"/><rect class="cls-28" x="82.04" y="305.74" width="41.67" height="5.5" transform="translate(205.75 616.98) rotate(-180)"/></g></g></svg>