<?xml version="1.0" encoding="utf-8"?>
<!-- Generator: Adobe Illustrator 24.2.3, SVG Export Plug-In . SVG Version: 6.00 Build 0)  -->
<svg version="1.1" id="Layer_1" xmlns="http://www.w3.org/2000/svg" xmlns:xlink="http://www.w3.org/1999/xlink" x="0px" y="0px"
	 viewBox="0 0 1000 553" style="enable-background:new 0 0 1000 553;" xml:space="preserve">
<style type="text/css">
	.st0{opacity:0.6;}
	.st1{clip-path:url(#SVGID_2_);}
	.st2{fill:#D4E9EC;}
	.st3{fill:#1D7E8E;}
	.st4{clip-path:url(#SVGID_4_);}
	.st5{fill:#00A09D;}
	.st6{clip-path:url(#SVGID_6_);}
	.st7{fill:#9D786A;}
	.st8{fill:#94624F;}
	.st9{opacity:0.1;}
	.st10{clip-path:url(#SVGID_8_);}
	.st11{fill:#231F20;}
	.st12{fill:#0B2D4E;}
	.st13{fill:#FBAE3E;}
	.st14{fill:#FFCD56;}
	.st15{fill:#66A5AF;}
	.st16{fill:#8CC7CF;}
	.st17{fill:#8ED2CC;}
	.st18{fill:#6CB9C4;}
	.st19{opacity:0.2;}
	.st20{clip-path:url(#SVGID_10_);}
	.st21{fill:#FFFFFF;}
	.st22{fill:#061F33;}
	.st23{fill:#73B8D4;}
	.st24{fill:#F8A17A;}
	.st25{clip-path:url(#SVGID_12_);}
	.st26{fill:#E5785C;}
	.st27{fill:#B8D1CE;}
	.st28{fill:#DD94AE;}
</style>
<g class="st0">
	<g>
		<g>
			<defs>
				<rect id="SVGID_1_" y="0.1" width="1000" height="552.9"/>
			</defs>
			<clipPath id="SVGID_2_">
				<use xlink:href="#SVGID_1_"  style="overflow:visible;"/>
			</clipPath>
			<g class="st1">
				<path class="st2" d="M223.4,201.1c5-4.9,9.8-9.8,14.2-14.7c21.9-24.8,36.4-51.9,49.2-82.1c8.9-20.8,30.3-29.7,43.4-47.2
					c16-21.4,36.8-42.2,62.9-51.4c27.5-9.7,63.6-3.8,92.2-4.4c47.2-1,105.5-3.7,142.5,30.3c15.1,13.9,21.5,34,36.9,47.4
					c13.6,11.8,30.3,15,46.7,21.2c16.8,6.3,33.3,14.9,45.2,28.7c10.4,12,16.5,26.9,21.8,41.6c5.2,14.3,8.7,31.1,20.1,41.8
					c9.3,8.8,22,11.8,33.5,16.6c12.5,5.2,25,14.1,33.2,25.1c11.2,15,9.4,34.3,15.4,51.2c5.4,15.1,18.1,28,28.8,39.7
					c20.2,22.2,51.1,28.9,69.1,53.9c15.4,21.4,26.6,50.5,19.2,77.1c-6.5,23.2-34.7,28.2-56.3,34.3c-42.7,12.2-85.1,12.1-129.3,14.7
					c-14.4,0.8-27,6.7-41.7,7.8c-17.2,1.3-34.4-0.4-51.5-0.4c-31.2,0-60.5-1.3-90.8,6.9c-17.2,4.6-33.6,11.4-51.6,13.1
					c-27.5,2.7-54.8-1.5-81.8-6c-19-3.2-38.4-11.6-57.4-13.3c-21.5-1.9-38.7,8.4-59.4,10.8c-22.3,2.6-44.8-0.2-67.1-0.2
					c-31.3,0-62.6-0.4-93.8,0c-25.8,0.3-52.4,3.8-78.4,1.6c-16-1.4-31-7.3-46.8-9.7c-29.1-4.5-50.7,8.9-74.7-15.1
					c-15.8-15.8-21.3-33.8-13.8-55c7.4-20.8,22.5-45,40.2-58.3c20-15,45.7-20.2,64-38c14.1-13.7,11.6-27.8,15.5-45.4
					C133.9,273.7,186.4,237,223.4,201.1"/>
			</g>
		</g>
	</g>
</g>
<path class="st3" d="M728,146.7c-4.5,0-8.9-0.6-12-5.1c-6.1-8.7-15.4-16.5-25.8-7.7c-6,5.1-1.5,15.6-6.7,20.7
	c-4.6,4.5-10.4,3.7-12.7,11.1c-3.4,10.9,7.4,20.5,10.9,29.9c2.9,7.9-3.7,10.9-6.6,17.1c-2.3,4.8-1.1,9.9,1.4,14.4
	c4.4,8,14.1,14.5,11.8,24.9c-1.9,8.7-3.6,16.4,4,23c5.2,4.5,15,8.6,14.2,16.9c-0.3,3-2.3,5.5-2.9,8.4c-0.9,4.6,2.1,9.1,5.6,12.2
	c7.9,7.2,14.8,14,20.7,23c2.5,3.9,12.6,12.6,8.6,17.9c7.3-9.6,15.1-18.9,21.7-29c5.5-8.3,13.7-20.4,8.1-30.7c-1.7-3.2-5-5.5-5.9-9.1
	c-1.6-6.4,4.6-12.3,7-17.6c3.6-8.5,1-18.3-5.5-24.7c-3-3-6.3-6.3-6.8-10.6c-0.5-4.6,2.4-9,3.8-13.3c1.2-4,2-8.1,2.4-12.3
	c0.4-2.9,0.3-5.8-0.2-8.7c-1.3-5.4-6.2-8.4-9.8-12.2c-8.5-9.1-4-19.8-7.8-30.4C742.3,145.5,735,146.8,728,146.7"/>
<g>
	<g>
		<defs>
			<path id="SVGID_3_" d="M690.2,134c-6,5.1-1.5,15.6-6.7,20.7c-4.6,4.5-10.4,3.7-12.7,11.1c-3.4,10.9,7.4,20.5,10.9,29.9
				c2.9,7.9-3.7,10.9-6.6,17.1c-2.3,4.8-1.1,9.9,1.4,14.4c4.4,8,14.1,14.5,11.8,24.9c-1.9,8.7-3.6,16.4,4,23
				c5.2,4.5,15,8.6,14.2,16.9c-0.3,3-2.3,5.5-2.9,8.4c-0.9,4.6,2.1,9.1,5.6,12.2c7.9,7.2,14.8,14,20.7,23
				c2.5,3.9,12.6,12.6,8.6,17.9c7.3-9.6,15.1-18.9,21.7-29c5.5-8.3,13.7-20.4,8.1-30.7c-1.7-3.2-5-5.5-5.9-9.1
				c-1.6-6.4,4.6-12.3,7-17.6c3.6-8.5,1-18.3-5.5-24.7c-3-3-6.3-6.3-6.8-10.6c-0.5-4.6,2.4-9,3.8-13.3c1.2-4,2-8.1,2.4-12.3
				c0.4-2.9,0.3-5.8-0.2-8.7c-1.3-5.4-6.2-8.4-9.8-12.2c-8.5-9.1-4-19.8-7.8-30.4c-3-8.5-9.1-8.4-15.3-8.3H728
				c-4.5,0-8.9-0.6-12-5.1c-4.2-6-9.9-11.6-16.4-11.6C696.5,130.1,693.5,131.3,690.2,134"/>
		</defs>
		<clipPath id="SVGID_4_">
			<use xlink:href="#SVGID_3_"  style="overflow:visible;"/>
		</clipPath>
		<g class="st4">
			<path class="st5" d="M740.1,364.4c3-33.8,0.8-70.5-6.5-109.1c-7.5-40.2-16.3-72.3-27.7-101.1c-4.2-10.8-9-21.3-14.4-31.5
				l-1.3,0.7c5.3,10.2,10.1,20.6,14.3,31.3c11.3,28.6,20,60.7,27.6,100.8c7.2,38.5,9.4,75.1,6.5,108.7L740.1,364.4z"/>
			<path class="st5" d="M722,205.1l1-1c-1.9-2-4.2-3.8-6.6-5.2c-0.9-0.6-1.9-1.2-3-1.9c-15.8-10.8-32.9-19.4-50.9-25.8l-0.5,1.4
				c17.9,6.3,34.9,14.9,50.5,25.6c1.1,0.8,2.2,1.4,3,2C717.9,201.5,720.1,203.1,722,205.1"/>
			<path class="st5" d="M730.6,244.2l0.8-1.2c-17.4-11.2-36.8-18.7-57.2-22.1l-0.2,1.4C694.2,225.7,713.4,233.1,730.6,244.2"/>
			<path class="st5" d="M737.3,291.1l0.9-1.1c-16.2-14-35.6-23.8-56.5-28.4l-0.3,1.4C702.1,267.6,721.3,277.2,737.3,291.1"/>
			<path class="st5" d="M722.3,203.4c1.2-19.2,6-38.1,14-55.6l-1.3-0.6c-8.1,17.7-12.9,36.7-14.1,56.1L722.3,203.4z"/>
			<path class="st5" d="M731.4,242.3c8.1-17.4,19.7-32.9,34.1-45.6l-0.9-1.1c-14.5,12.8-26.2,28.5-34.5,46L731.4,242.3z"/>
			<path class="st5" d="M739.6,292c1.1-5.3,3.1-10.4,5.7-15.1c3.2-5.6,7.4-10.5,11.5-15.1c3-3.4,6.1-6.9,9.3-10.2l-1-1
				c-3.1,3.4-6.3,6.8-9.3,10.2c-4.1,4.6-8.3,9.6-11.6,15.4c-2.8,4.8-4.8,10.1-5.9,15.5L739.6,292z"/>
		</g>
	</g>
</g>
<path class="st5" d="M783.5,213.1c3.3,0.6,6.5,0.8,9.4-2c5.6-5.5,13.4-9.9,19.8-2c3.7,4.5-1.1,11.5,2,15.9c2.7,3.9,7,4.1,7.7,9.9
	c1,8.4-8.2,13.8-12,20.2c-3.2,5.3,1.1,8.4,2.4,13.3c1,3.8-0.6,7.3-3,10.3c-4.3,5.2-12.2,8.5-12,16.4c0.2,6.5,0.3,12.4-6.1,16.1
	c-4.4,2.5-12,4.2-12.7,10.3c-0.2,2.2,0.9,4.3,0.9,6.5c0,3.5-2.8,6.3-5.7,8.1c-6.7,4.1-12.7,8.1-18.2,13.8
	c-2.4,2.5-10.9,7.4-8.7,11.8c-4-8-8.3-15.8-11.8-24c-2.8-6.8-7.1-16.7-1.6-23.4c1.7-2.1,4.4-3.3,5.5-5.8c2-4.4-1.7-9.5-2.6-13.8
	c-1.5-6.7,1.8-13.4,7.4-17.2c2.6-1.8,5.5-3.7,6.4-6.7c1-3.3-0.5-6.9-0.9-10.1c-0.3-3.1-0.3-6.2-0.1-9.2c0.1-2.2,0.6-4.3,1.4-6.3
	c1.7-3.7,5.6-5.2,8.8-7.5c7.5-5.4,5.7-13.8,9.9-21C773.4,210.1,778.5,212.1,783.5,213.1"/>
<g>
	<g>
		<defs>
			<path id="SVGID_5_" d="M792.9,211.1c-2.9,2.8-6.1,2.6-9.4,2c-5.1-0.9-10.2-2.9-13.9,3.6c-4.2,7.1-2.4,15.5-9.9,21
				c-3.1,2.3-7.1,3.8-8.8,7.5c-0.8,2-1.3,4.1-1.4,6.3c-0.3,3.1-0.2,6.2,0.1,9.2c0.4,3.3,1.9,6.8,0.9,10.1c-0.9,3-3.8,5-6.4,6.7
				c-5.5,3.7-8.8,10.5-7.4,17.2c0.9,4.2,4.7,9.4,2.6,13.8c-1.1,2.4-3.8,3.7-5.5,5.8c-5.5,6.6-1.2,16.6,1.6,23.4
				c3.4,8.2,7.8,16.1,11.8,24c-2.2-4.4,6.3-9.3,8.7-11.8c5.5-5.7,11.5-9.7,18.2-13.8c3-1.8,5.7-4.6,5.7-8.1c0-2.2-1.1-4.3-0.9-6.5
				c0.6-6.1,8.2-7.8,12.7-10.3c6.5-3.7,6.3-9.5,6.1-16.1c-0.2-7.8,7.7-11.2,12-16.4c2.4-3,4-6.5,3-10.3c-1.3-4.9-5.6-8-2.4-13.3
				c3.8-6.4,13-11.8,12-20.2c-0.7-5.7-5-6-7.7-9.9c-3-4.4,1.7-11.4-2-15.9c-2.5-3.1-5.2-4.3-7.9-4.3
				C800.5,204.8,796.3,207.8,792.9,211.1"/>
		</defs>
		<clipPath id="SVGID_6_">
			<use xlink:href="#SVGID_5_"  style="overflow:visible;"/>
		</clipPath>
		<g class="st6">
			<path class="st3" d="M745.8,369.4c2.5-24.8,9.2-51,19.7-77.9c11-28.1,21.8-50.1,33.9-69.3c4.5-7.2,9.4-14.1,14.7-20.7l-1.1-0.9
				c-5.3,6.7-10.2,13.6-14.8,20.9c-12.2,19.3-23,41.4-34,69.5c-10.6,27-17.3,53.4-19.8,78.3L745.8,369.4z"/>
			<path class="st3" d="M779.9,256.4c1.6-1.1,3.4-2.1,5.3-2.7c0.7-0.3,1.5-0.6,2.5-1c12.8-5.6,26.3-9.5,40.2-11.6l-0.2-1.4
				c-14,2.1-27.6,6-40.5,11.7c-0.9,0.4-1.7,0.7-2.4,1c-2,0.7-3.9,1.7-5.6,2.9L779.9,256.4z"/>
			<path class="st3" d="M768.2,283.6c14-5.6,28.9-8.4,44-8v-1.4c-15.3-0.4-30.4,2.4-44.6,8.1L768.2,283.6z"/>
			<path class="st3" d="M756.8,316.6c13.5-7.8,28.7-12.1,44.3-12.6v-1.4c-15.8,0.5-31.3,4.8-45,12.8L756.8,316.6z"/>
			<path class="st3" d="M781,255.1c1.8-14.3,0.9-28.7-2.5-42.7l-1.4,0.3c3.4,13.8,4.2,28.1,2.5,42.2L781,255.1z"/>
			<path class="st3" d="M767.6,282l1.4-0.4c-3.6-13.9-9.9-26.9-18.7-38.2l-1.1,0.9C757.9,255.5,764.1,268.3,767.6,282"/>
			<path class="st3" d="M754.8,316.9h1.4c-0.1-4.1-0.8-8.2-2.1-12.1c-1.7-4.5-3.8-8.8-6.3-12.8c-1.7-2.9-3.5-5.9-5.3-8.7l-1.2,0.8
				c1.8,2.9,3.6,5.8,5.3,8.7c2.5,4,4.6,8.2,6.2,12.5C754.1,309,754.8,312.9,754.8,316.9"/>
		</g>
	</g>
</g>
<polygon class="st7" points="713.2,360 780.3,360 768.5,427.2 725,427.2 "/>
<rect x="705" y="341.1" class="st8" width="83.5" height="18.9"/>
<g class="st9">
	<g>
		<g>
			<defs>
				<rect id="SVGID_7_" x="713.2" y="360" width="67.1" height="8.9"/>
			</defs>
			<clipPath id="SVGID_8_">
				<use xlink:href="#SVGID_7_"  style="overflow:visible;"/>
			</clipPath>
			<g class="st10">
				<polygon class="st11" points="778.7,368.9 714.7,368.9 713.2,360 780.3,360 				"/>
			</g>
		</g>
	</g>
</g>
<rect x="241.6" y="211.6" class="st12" width="3.1" height="103.6"/>
<rect x="217.4" y="307.3" class="st12" width="51.4" height="8"/>
<path class="st12" d="M222.1,307.3h42.2v-3.6c0-2.4-1.9-4.3-4.3-4.3l0,0h-33.5c-2.4,0-4.3,1.9-4.3,4.3v3.6H222.1z"/>
<polygon class="st13" points="210,237.6 276.8,237.6 260,172.1 226.8,172.1 "/>
<polygon class="st14" points="232.5,237.6 253.7,237.6 249.6,172.1 236.7,172.1 "/>
<rect x="172.7" y="315.3" class="st7" width="112.2" height="9.2"/>
<rect x="172.7" y="324.5" class="st7" width="112.2" height="28.9"/>
<polygon class="st8" points="275.4,324.5 275.4,389 182.2,389 182.2,324.5 172.7,324.5 172.7,389 172.7,398.2 172.7,426.6 
	182.2,426.6 182.2,398.2 275.4,398.2 275.4,426.6 284.9,426.6 284.9,398.2 284.9,389 284.9,324.5 "/>
<rect x="186.1" y="328.4" class="st8" width="85.4" height="20.7"/>
<path class="st5" d="M188.7,255.2c0.9,1.1,2.5,1.2,3.5,0.3c1.1-0.9,1.2-2.5,0.3-3.5c-0.8-0.9-2.1-1.1-3.2-0.5
	C188.1,252.3,187.8,254,188.7,255.2"/>
<path class="st3" d="M190.8,255.2c0.4,0,0.7-0.2,1-0.5c0.6-0.6,0.6-1.5,0.1-2.2l-0.7-1c0.5,0.3,1,0.6,1.4,1.1c1.8,1.7,0.4,5-2.2,4.2
	c-0.5-0.2-1.3-0.8-0.6-1.2C190.1,255.4,190.4,255.3,190.8,255.2"/>
<path class="st5" d="M189.8,263.5c1.4,3.4,5,5,8,3.8s4.2-5,2.7-8.4s-5-5-8-3.8S188.3,260.1,189.8,263.5"/>
<path class="st3" d="M192.9,266.5c0.2,0.2,0.5,0.4,0.9,0.5s0.8,0.3,1.2,0.3c1.4,0.2,2.8-0.1,4.1-0.7c2.4-1.5,2.5-5.4,1.5-7.7
	c-1.4-3.4-5-5-8-3.8c0.4-0.2,1.6,0.4,2,0.6c0.6,0.2,1.1,0.6,1.5,1c0.7,0.8,1.2,1.8,1.4,2.8c0.2,1.2-0.1,2.5-0.9,3.5
	c-0.7,0.9-1.5,1.7-2.5,2.2c-0.4,0.2-1.1,0.3-1.2,0.8C192.7,266.2,192.8,266.4,192.9,266.5"/>
<path class="st5" d="M203.5,260.6c-2.1,1.8-2.3,5-0.4,7.1c1.8,2.1,5,2.3,7.1,0.4c2.1-1.8,2.3-4.9,0.5-7
	C208.8,259,205.6,258.7,203.5,260.6C203.5,260.5,203.5,260.5,203.5,260.6"/>
<path class="st5" d="M208.4,258c-0.5,1.2,0.1,2.6,1.3,3.1s2.6-0.1,3.1-1.3c0.5-1.2-0.1-2.6-1.3-3.1S208.9,256.8,208.4,258L208.4,258
	"/>
<path class="st5" d="M190.6,273.9c0,5.7,3.6,10.3,8.1,10.3s8.1-4.6,8.1-10.3s-3.6-10.3-8.1-10.3S190.6,268.2,190.6,273.9"/>
<path class="st3" d="M198.7,284.1c4.5,0,8.1-4.6,8.1-10.3s-3.6-10.3-8.1-10.3C204.2,269.8,203.8,280.5,198.7,284.1"/>
<path class="st3" d="M204.1,267.5c0,0.2,0,0.4,0.1,0.6c0.1,0.3,0.3,0.6,0.4,0.9c0.9,1,2.9,0.5,3.9,0.1c1.3-0.5,2.3-1.5,2.8-2.8
	c0.6-1.7,0.4-3.6-0.7-5.1c-0.3-0.4-0.8-0.7-1.3-0.7c0.4,0-0.1,1.9-0.1,2.2c-0.2,0.9-0.6,1.8-1.2,2.5c-0.6,0.6-1.5,1-2.4,1.1
	C205,266.4,204.2,266.7,204.1,267.5"/>
<path class="st3" d="M210.1,260.5c0.7,0.8,1.2,0.9,2,0.2c0.6-0.5,0.9-1.3,0.7-2.1c-0.1-0.7-0.5-1.3-1.1-1.7c-0.4-0.2-1,0.1-1.4-0.1
	c0.9,0.4,1.3,1.5,0.8,2.4c-0.1,0.2-0.3,0.4-0.4,0.6c-0.2,0.1-0.4,0.3-0.6,0.4l-0.1,0.1C210,260.4,210,260.4,210.1,260.5"/>
<polygon class="st7" points="188.1,315.3 211.5,315.3 214.1,289.6 185.5,289.6 "/>
<rect x="184.7" y="279.9" class="st8" width="30.3" height="9.7"/>
<rect x="406.5" y="300.8" class="st15" width="181.1" height="73.6"/>
<path class="st16" d="M667.4,337.3H517.6c-12.3,0-22.3-11-22.3-24.6V207.1c0-13.6,10-24.6,22.3-24.6c0,0,41.4,5.3,74,5.3
	s75.9-5.3,75.9-5.3c12.3,0,22.3,11,22.3,24.6v105.6C689.7,326.3,679.7,337.3,667.4,337.3"/>
<path class="st15" d="M642.5,376h-97.7c-27.1,0-49-24.8-48.6-55.1c0,0-0.4-86.5,0-106.6c0,106.6,194.9,106.6,193.5,0.8
	c0.3,26.4,1.3,105.8,1.3,105.8C691.4,351.2,669.5,376,642.5,376"/>
<path class="st17" d="M518.2,182.6h149.3c0,0-33.2,14-75.6,14S518.2,182.6,518.2,182.6"/>
<path class="st16" d="M473.5,335.7H322.8c-12.4,0-22.4-11-22.4-24.6V205.5c0-13.6,10-24.6,22.4-24.6c0,0,41.7,5.3,74.4,5.3
	s76.3-5.3,76.3-5.3c12.4,0,22.4,11,22.4,24.6v105.6C495.8,324.7,485.8,335.7,473.5,335.7"/>
<path class="st15" d="M447.7,374.4h-98.3c-27.3,0-49.2-24.8-48.8-55c0,0-0.4-86.5,0-106.6c0,106.6,196,106.6,194.6,0.8
	c0.4,26.4,1.4,105.9,1.4,105.9C497,349.6,475,374.4,447.7,374.4"/>
<path class="st16" d="M714.1,262.9c-3.9-6.3-11.9-10.6-18.9-8.1c-9.8,3.4-13,14.1-14.4,23.4c-3.5,22.3-13.2,45.7-37,52
	c-13,3.5-27.1,2.7-40.5,2.7c-1.6,0-162.1,0.2-191.9-0.4c0-0.1,0-0.1,0-0.2c0,0.1-0.2,0.1-0.5,0.2c-2.7-0.1-4.2-0.1-4.2-0.2
	c0,0.2,0,0.3,0,0.5c-6.9,0.2-19.2,0.1-20.4,0.1c-13.4,0-27.5,0.8-40.5-2.7c-23.8-6.3-33.5-29.7-37-52c-1.4-9.3-4.6-20-14.4-23.4
	c-7-2.4-15,1.9-18.9,8.1c-9,14.4-4.5,36-0.2,51.2c2.6,9.1,4.9,17.5,9.4,26.8c4.1,8.5,20.6,25.6,21.6,25.6c38.5,0,65.3-0.1,103.3-0.1
	c44.8,0,235.8,0.1,274.2,0.1c1,0,17.4-17.1,21.5-25.6c4.5-9.2,6.8-17.7,9.4-26.8C718.6,298.9,723.1,277.3,714.1,262.9z"/>
<path class="st18" d="M495.5,300.8c0,8.8-9.5,33.4-88.8,33.4s-88.8-24.6-88.8-33.4s39.7-15.9,88.8-15.9S495.5,292,495.5,300.8"/>
<path class="st17" d="M495.5,300.8c-13.2-8.4-164-8.5-177.5,0c0-8.8,39.7-15.9,88.8-15.9S495.5,292,495.5,300.8"/>
<path class="st15" d="M495.3,300.8c0,8.8-9.5,33.4-88.8,33.4s-88.8-24.6-88.8-33.4C328.2,334.1,486,334.1,495.3,300.8"/>
<path class="st18" d="M673.5,300.8c0,8.8-9.5,33.4-88.8,33.4S496,309.5,496,300.8s39.7-15.9,88.8-15.9S673.5,292,673.5,300.8"/>
<path class="st17" d="M673.5,300.8c-13.2-8.4-164-8.5-177.5,0c0-8.8,39.7-15.9,88.8-15.9S673.5,292,673.5,300.8"/>
<path class="st15" d="M673.4,300.8c0,8.8-9.5,33.4-88.8,33.4s-88.8-24.6-88.8-33.4C506.2,334.1,664,334.1,673.4,300.8"/>
<path class="st17" d="M322.7,180.9h150.1c0,0-33.4,14-76,14S322.7,180.9,322.7,180.9"/>
<path class="st8" d="M693.9,419.8l-10.6-44v-9.3H305.9v9.5h0.4l-10.6,43.8c-0.9,3.2,0.7,6.4,3.5,7.3l0,0c2.8,0.9,6-0.9,7-4.1
	l17.2-47h342.7l17.2,47c1,3.1,4.1,4.9,7,4.1l0,0C693.3,425.9,694.9,422.7,693.9,419.8z"/>
<path class="st5" d="M686.5,253.1c-0.5,2.3-7.3,27.6-7.7,31c-0.2,4-0.1,8.1,0.3,12.1c0-1.9,0.2,4-3.5,3.5
	c-1.8-0.3-41.6-8.1-55.9-10.2s-29-1.9-30.4-2.1c-2.8-0.5-3.8-2-4.8-6.3s5.1-22.1,6-27.8s-1.3-9.5-0.6-12.3c0.8-3.7,4.4-4.9,7.4-4.6
	c1.8,0.2,19.7,3.8,33.8,5.5c13.8,1.7,49.3,5.1,50.7,5.3C684.7,247.5,686.9,250.8,686.5,253.1"/>
<path class="st3" d="M686.3,253.1c-0.5,2.3-7.3,27.6-7.7,31c-0.2,4-0.1,8.1,0.3,12.1c0-1.9,0.2,4-3.5,3.5
	c-1.9-0.3-41.6-8.1-55.9-10.2s-29-1.9-30.4-2.1c-2.8-0.5-3.8-2-4.8-6.3c-0.5-2,0.6-6.7,1.9-11.8c30.3,15,92.2,32,92-22.2
	c1.9,0.1,3.1,0.1,3.5,0.1C684.5,247.4,686.8,250.7,686.3,253.1"/>
<g class="st19">
	<g>
		<g>
			<defs>
				<rect id="SVGID_9_" x="589.9" y="236.3" width="85" height="19.1"/>
			</defs>
			<clipPath id="SVGID_10_">
				<use xlink:href="#SVGID_9_"  style="overflow:visible;"/>
			</clipPath>
			<g class="st20">
				<path class="st21" d="M589.9,240.9c0.8-3.7,4.4-4.9,7.4-4.6c1.8,0.2,19.7,3.8,33.8,5.5c7.5,0.9,39.3,4.8,43.8,5
					C657.3,267.9,589.3,243.8,589.9,240.9"/>
			</g>
		</g>
	</g>
</g>
<path class="st12" d="M411.4,275.8c8.6-0.4,17.1,1,25.6,2.4c2.7,0.4,5.5,1.9,3.5,5.1c-1.1,1.8-3.4,2.3-5.5,2.5
	c-8.9,1-18-0.1-26.9-0.1"/>
<path class="st22" d="M348.2,263.9c-1.3,8,2.4,19.5,11.1,21.8c3.5,0.9,7.7,0.6,11.4,0.6l13.2-0.1l26-0.2c5.7,0,11.8-0.2,16.5-3.3
	c5.7-3.7,8.5-10.6,4.7-16.6c-3.2-5.1-9.3-8.2-15-9.5c-9.7-2.1-19.7,0.7-29.3-1c-1.6-0.3-3.1-0.7-4.6-1.2c-8.7-3.1-17.3-7.5-26.1-2.4
	C351.9,254.6,349,259,348.2,263.9"/>
<path class="st12" d="M419.9,246.7c1.5-1.5,2.3-1.8,3.2,0.3c1.1,2.5,1.6,5.3,1.6,8c3.6,0.8,7,2.4,9.9,4.7c2.3-1.5,4.8-2.6,7.5-3.2
	c2.3-0.5,2.5,0.4,2.1,2.4c-0.6,2.5-1.3,5-2.2,7.4c-0.5,1.5-1,3.1-1.5,4.6c-0.4,1.5-1.1,3-2,4.2c-2.5,3.1-7.5,5-11.5,5.5
	c-4.4,0.6-8.6-0.5-11.6-3.9c-2.7-3.2-4.5-7-5.2-11.1c-0.4-2.3-0.2-4.6,0.6-6.8c0.9-2.4,2.6-4.2,4.2-6.2
	C416.6,250.7,418.2,248.7,419.9,246.7"/>
<path class="st12" d="M354.8,257.5c-8.3,7.9-7.4,17-2.9,25.1c5.1,8.9,13.5,15,22.8,18.9c11,4.6,23.7,7,35.5,4.2
	c2.4-0.6,5-1.7,5.7-4.1c2.1-6.9-8.7-6.8-12.6-7.1c-7.9-0.7-16.3-0.8-24-3.3c-8.4-2.8-14.5-8.8-18.7-16.5"/>
<path class="st12" d="M348.7,270.3c0-3.7,1.3-7.3,3.6-10.3c5.9-7.4,17.3-7.6,25.2-3.6c9,4.6,10.5,16.8,6.9,25.3
	c-0.2,0.4,3.2,0.3,3.4,0.3c2.4,0.2,7.3-0.3,8.3,2.6c0.6,2.2-0.6,4.4-2.6,5.2c-0.8,0.2-1.7,0.3-2.6,0.3c-6.2,0-12.4,0-18.6,0
	c-4.8,0-8.5-0.9-11.4-5c-1.5-2.1-2.7-4.5-4.3-6.6"/>
<path class="st22" d="M420.8,273c-0.6,1-0.2,2.3,0.8,2.8c1,0.6,2.3,0.2,2.8-0.8c0.6-1,0.2-2.3-0.8-2.8c-0.1-0.1-0.2-0.1-0.3-0.1
	C422.4,271.6,421.3,272.1,420.8,273"/>
<path class="st23" d="M412.1,256.4c-0.3,0.5-0.7,1-1,1.5c-0.2,0.3-0.3,0.5-0.5,0.8c-0.1,0.3-0.2,0.6-0.3,0.9
	c-0.1,0.6-0.2,1.2-0.3,1.8c-0.1,0.6-0.2,1.2-0.2,1.9c-0.1,1.3,0,2.5,0.2,3.8c0.2,1.2,0.6,2.5,1,3.6c0.5,1.2,1,2.3,1.7,3.4
	s1.5,2,2.4,2.9s1.9,1.7,2.9,2.3c0.5,0.3,1.1,0.6,1.7,0.8c0.6,0.2,1.2,0.2,1.9,0.1c-1.2-0.1-2.4-0.5-3.3-1.3
	c-0.5-0.4-0.9-0.8-1.4-1.2c-0.2-0.2-0.4-0.4-0.6-0.6s-0.4-0.4-0.6-0.7c-0.8-0.9-1.5-1.9-2.1-2.9s-1.1-2.1-1.5-3.2
	c-0.9-2.2-1.3-4.6-1.4-7c0-0.6,0-1.2,0-1.8s0-1.2,0.1-1.8c0-0.3,0.1-0.6,0.1-0.9c0.1-0.3,0.2-0.6,0.3-0.8
	C411.6,257.5,411.9,257,412.1,256.4"/>
<path class="st12" d="M488.8,171.9c8.8,3.6,20,2.5,27.7-3s15-9.7,25-10c6.2-0.2,12,2.4,17.9,3.9c5.2,1.3,9.1,5.4,14.7,6.2
	c7.3,1,14.9-3.5,18.2-10.1s2.6-14.9-1.1-21.3c-2.7-4.7-5.2-8.2-2.1-13.4c0.7-1.1,1.4-2.2,1.9-3.4c0.4-1.2,0.5-2.4,0.4-3.7
	c-0.3-6.8-5.4-11.8-8.8-17.4c-0.9-1.3-1.5-2.7-1.8-4.2c-0.6-3.8,2.4-7.2,4.1-10.7c5.2-11.5-3.8-24.5-12.5-31.4
	c-5.2-4.1-11.4-5.7-17-9c-2.5-1.5-4.9-3.4-7.4-4.8c-4.5-2.5-9.4-2.7-14.3-2c-14.2,2-30.3,12.3-33.6,27.1
	c-2.2,10.1,1.4,21.8-8.5,28.8c-3,2.1-6.8,3.4-8.8,6.4c-4.4,6.5,2,16.1-1.9,22.8c-1,1.4-2.1,2.8-3.4,3.9c-6.4,6.8-9.6,16-8.7,25.3
	c0.1,2.2,0.8,4.4,1.8,6.4c1.5,2.7,4.1,4.6,6.6,6.4c3.7,2.8,7.6,5.2,11.8,7.1L488.8,171.9"/>
<path class="st12" d="M592.4,144c0.8-2.4-0.6-4.5-2-6.6c-0.6-0.8-1.1-1.7-1.5-2.5c-1-2.2-0.9-4.7,0.1-6.8c0.6-1.2,1.4-2.2,2.3-3.2
	c0.9-1,1.6-2,2.3-3.2c1.4-2.7,1.5-5.9,0.3-8.7c-1.2-2.7-3.5-4.6-5.7-6.4l-1.4-1.2c-1.9-1.6-6.1-6-4.5-11.2c0.7-2,1.6-3.9,2.7-5.7
	c0.4-0.7,0.8-1.4,1.1-2.1c2-3.7,3.2-7.9,3.5-12.2c0.2-4.4-1.2-8.6-4-12c-2.3-2.6-5.4-4.3-8.7-5.9l-2.7-1.3c-4-1.9-7.9-3.9-11.6-6.2
	c-2.3-1.3-4.5-3-6.5-4.8c-0.5-0.5-0.9-1-1.4-1.5c-1.3-1.5-2.7-2.8-4.4-3.9c-5.6-3.4-13.1-4.6-21.3-3.3c-7.6,1.2-14.8,4.4-19.8,8.9
	c-0.6,0.5-1.2,1.1-1.7,1.7c-4.5,4.7-7.3,10.3-7.8,15.3s-0.6,10.2-0.6,14.5c0,0.9,0,1.8,0,2.6c0.3,2.6,0,5.2-0.8,7.6
	c-1.5,4.1-3.4,6.7-6,7.9c-1.2,0.5-2.5,0.9-3.8,1.2c-1,0.2-2.1,0.5-3.1,0.8c-4.8,1.8-8.1,6.2-8.4,11.3c0,2.7,0.5,5.3,1.4,7.9
	c0.3,1.1,0.7,2.3,0.9,3.4c1.1,4.9,0.7,11.6-3.9,15.5l0.8,0.9c4.9-4.2,5.4-11.4,4.3-16.6c-0.3-1.2-0.6-2.3-1-3.5
	c-0.9-2.4-1.3-4.9-1.4-7.5c0.2-4.6,3.2-8.7,7.6-10.3c1-0.3,1.9-0.6,2.9-0.8c1.4-0.3,2.8-0.7,4.1-1.2c3.8-1.8,5.6-5.7,6.6-8.5
	c0.8-2.6,1.1-5.4,0.9-8.1c0-0.8-0.1-1.7-0.1-2.6c0-4.3,0.1-9.3,0.6-14.4c0.5-4.8,3.2-10.2,7.5-14.7c0.5-0.5,1.1-1.1,1.7-1.6
	c9.3-8.3,27.9-12.6,39.7-5.4c1.6,1,3,2.3,4.2,3.7c0.4,0.5,0.9,1,1.4,1.5c2,1.9,4.3,3.6,6.7,5c3.8,2.3,7.7,4.4,11.7,6.3l2.7,1.3
	c3.2,1.6,6.2,3.2,8.3,5.7c2.6,3.1,3.9,7.1,3.7,11.2s-1.4,8.1-3.3,11.7c-0.3,0.7-0.7,1.4-1.1,2.1c-1.1,1.9-2.1,3.9-2.8,6
	c-1.3,4.1,0.5,8.7,4.8,12.4c0.5,0.4,0.9,0.8,1.4,1.2c2.1,1.7,4.3,3.6,5.4,6c1.1,2.5,1,5.3-0.3,7.7c-0.6,1.1-1.3,2.1-2.2,3
	c-1,1-1.8,2.2-2.5,3.4c-1.2,2.5-1.2,5.3-0.1,7.8c0.5,0.9,1,1.8,1.6,2.7c1.3,1.9,2.4,3.7,1.8,5.6L592.4,144z"/>
<path class="st12" d="M493.3,270.1c1.1,3,2.5,5.9,4.3,8.5c8.3,12.9,18.3,21.7,28.2,27.4c8.8,5.1,18.1,4.9,27.1,2.9
	c6.2-1.4,12.3-5.6,18.3-9.5c6.6-4.3,12.6-9.4,17.8-15.3c4.5-5,8.5-11.3,9.2-23.3c0.3-4.7-0.2-9.9-1.8-13.1c-2-3.8-4.9-3.7-7.5-3.3
	c-14.9,2.6-29.4,13.7-44.4,13.9c-8.4,0.1-16.2-4.7-24.3-9.1c-6.2-3.3-13.1-7.1-19.6-6.3C494.8,243.6,489,258,493.3,270.1"/>
<path class="st24" d="M587,242.1c0.4-0.8,0.7-1.7,1.1-2.5c4-9,7-18.5,8.8-28.3c0.7-3.5,1.3-7.3,4-9.7c3.7-3.3,10.9-2.8,15.5-2.2
	c2.1,0.3,4.4,1,5.7,2.8c2.1,2.9,1.9,9.4,2,12.8c0.5,21-16.1,38.4-29.7,52.6c-2.6,2.7-5.4,5.5-9,6.6s-8.2,0-9.8-3.5
	c-1.2-2.5-0.5-5.5,0.5-8.1c1.6-4.5,3.9-8.7,6.7-12.5C584.4,247.6,585.9,245,587,242.1"/>
<path class="st22" d="M507.5,127.8c-0.6,3.7-0.1,7.4,1.5,10.8c4.3,9,15.1,10.8,24.2,11.1c3.3,0.1,6.7,0,10-0.5c3-0.4,5.6,0,8.6-0.1
	c5.9-0.1,11.7-1.8,16.8-5c2.5-1.4,4.6-3.5,6-6.1c1.7-3.6,1.2-7.8,0.3-11.6c-0.5-2.2-1.2-4.4-2.3-6.4c-1.2-2.1-3-3.9-4-6.1
	c-1.9-4.2-0.3-9.1-2-13.2c-1.3-3.2-4.7-6.8-7.5-8.8c-3.8-2.7-8.7-3.6-13.3-3.3s-9.2,1.7-13.6,3.2c-3.5,1.1-6.5,0.4-9,3.3
	c-2,2.3-1.3,6-2,8.8C518.9,113.2,509,118.1,507.5,127.8"/>
<path class="st13" d="M571.6,169.2c5.9,10.1,12.6,19.9,19,29.8c3.6,5.5,7.2,11.1,9.1,17.4c8.8-0.2,17.6-2.1,26.2-3.7
	c-1.4-11.7-7.5-22.2-13-32.4c-5.7-10.6-11.9-20.9-17.3-31.7c-4.4-8.8-12.6-19.2-23.5-13.9c-8.4,4.1-7.1,15.6-5.4,23.1
	C567.8,161.8,569.5,165.7,571.6,169.2"/>
<path class="st24" d="M505.3,242.1c-0.4-0.8-0.7-1.7-1.1-2.5c-4-9-7-18.5-8.8-28.3c-0.6-3.5-1.3-7.3-4-9.7
	c-3.7-3.3-10.9-2.8-15.5-2.2c-2.1,0.3-4.4,1-5.7,2.8c-2.1,2.9-1.9,9.4-2,12.8c-0.5,21,16.1,38.4,29.7,52.6c2.6,2.7,5.4,5.5,9,6.6
	s8.2,0,9.8-3.5c1.2-2.5,0.5-5.5-0.5-8.1c-1.6-4.5-3.9-8.7-6.7-12.5C507.8,247.6,506.4,245,505.3,242.1"/>
<path class="st13" d="M520.7,169.2c-5.9,10.1-12.6,19.9-19,29.8c-3.6,5.5-7.2,11.1-9.1,17.4c-8.8-0.2-17.6-2.1-26.2-3.7
	c1.4-11.7,7.5-22.2,13-32.4c5.7-10.6,11.9-20.9,17.3-31.7c4.4-8.8,12.6-19.2,23.5-13.9c8.4,4.1,7.1,15.6,5.4,23.1
	C524.5,161.8,522.8,165.7,520.7,169.2"/>
<path class="st14" d="M502.3,251.9c2.4-6.5,6.1-11.8,8.2-18.5c2.9-9.1,4.8-22.1,1.5-31.5c-3.5-10-7.8-17.9-8-29.1
	c-0.2-9.5,1.7-18.9,3.6-28.2s2.8-11.9,11.8-13.3c3.2-0.5,6.4-1.4,9.6-1.9c5.4-0.9,10.9-1.4,16.4-1.4h0.4c5.5,0,11,0.5,16.5,1.4
	c3.2,0.6,6.4,1.4,9.6,1.9c9,1.4,9.9,4.1,11.8,13.3s3.8,18.7,3.6,28.2c-0.3,11.1-4.5,19-8,29.1c-3.3,9.4-1.3,22.4,1.5,31.5
	c2.1,6.7,5.8,12,8.2,18.5c0.2,0.5,0.3,1,0.2,1.6c-0.3,0.6-0.8,1.2-1.5,1.4c-12,6.2-25.4,8.1-38.5,9.1l-3.4,0.2l0,0h-0.5l0,0L542,264
	c-13.1-1-26.6-2.9-38.5-9.1c-1.1-0.3-1.7-1.3-1.5-2.4C502,252.3,502.1,252.1,502.3,251.9"/>
<g>
	<g>
		<defs>
			<path id="SVGID_11_" d="M545.7,128h-0.2c-5.5,0-11,0.4-16.4,1.4c-3.2,0.6-6.4,1.4-9.6,1.9c-9,1.4-9.9,4.1-11.8,13.3
				s-3.8,18.7-3.6,28.2c0.3,11.1,4.5,19,8,29.1c3.3,9.4,1.3,22.4-1.5,31.5c-2.1,6.7-5.8,12-8.2,18.5c-0.6,0.9-0.3,2.2,0.6,2.8
				c0.2,0.1,0.4,0.2,0.6,0.2c12,6.3,25.4,8.1,38.5,9.1l3.4,0.2l0,0h0.5l0,0l3.4-0.2c13.1-1,26.5-2.9,38.5-9.1
				c0.7-0.2,1.2-0.8,1.5-1.4c0.1-0.5,0-1.1-0.2-1.6c-2.5-6.5-6.1-11.8-8.2-18.5c-2.9-9.1-4.8-22.1-1.5-31.5c3.5-10,7.8-17.9,8-29.1
				c0.2-9.5-1.7-18.9-3.6-28.2s-2.8-11.9-11.8-13.3c-3.2-0.5-6.4-1.4-9.6-1.9c-5.4-0.9-10.9-1.4-16.4-1.4L545.7,128"/>
		</defs>
		<clipPath id="SVGID_12_">
			<use xlink:href="#SVGID_11_"  style="overflow:visible;"/>
		</clipPath>
		<g class="st25">
			<path class="st14" d="M517.1,133.2c-0.6-1.7-2.7-5.5-1.6-7s5-1.2,6.5-1.1l50.8,1.7c-1,3.6-1,7-2.4,10.6c-1.2,3.1-2.8,5.9-4.8,8.5
				c-4,5.2-9.7,8.8-16.1,10c-10.9,2.1-23-3.2-28.5-12.8C519.5,140,518.1,136.6,517.1,133.2"/>
		</g>
	</g>
</g>
<path class="st24" d="M558.4,145.9c-5.3,6-15.5,6.5-22.7,4c-4.9-1.7-8.3-5.5-8.4-10.8c-0.1-5.9,5.1-10.1,6.4-15.6
	c0.6-3.1,0.8-6.3,0.6-9.5c-0.1-3.7-0.1-7.4-0.3-11.1c3.4-0.8,7-1.1,10.5-1c3.2,0.1,6.4-0.2,9.6,0c0.3,0,0.5,0.1,0.7,0.2
	c0.2,0.2,0.2,0.4,0.2,0.7c0.4,5,0,10,0.3,15c0.3,4.6,1.3,9.2,4,13c3.1,4.6,2.7,10.8-1.1,14.9"/>
<path class="st23" d="M548.6,49.5c-2.7-1.4-5.7-2.1-8.7-2.2c-3-0.1-6.1,0.2-9,0.9c-6,1.3-11.4,4.3-15.7,8.6c-4.4,4.3-7.3,9.9-8.2,16
	c-0.3,3-0.4,6-0.3,9s-0.4,5.9-1.5,8.6c-1.4,2.6-3.3,4.8-5.8,6.5c-2.4,1.7-5.1,3.1-7.6,4.7c-1.4,0.7-2.6,1.8-3.6,3
	c-0.8,1.3-1.2,2.9-1.2,4.5c0,1.5,0.2,3.1,0.6,4.6c0.5,1.4,1,2.9,1.7,4.2c0.6,1.3,0.9,2.8,0.8,4.2c-0.2,1.5-0.6,2.9-1.3,4.2
	c-1.3,2.7-2.8,5.3-4.1,8c-1.4,2.7-2.2,5.6-2.5,8.7c-0.3,3,0.1,6,1.1,8.9c-0.9-2.9-1.2-5.9-0.9-8.9c0.4-3,1.3-5.9,2.7-8.5
	c1.3-2.7,2.9-5.2,4.3-8c0.7-1.4,1.2-2.9,1.4-4.4c0.1-1.6-0.2-3.1-0.8-4.5c-0.6-1.4-1.1-2.7-1.6-4.2c-0.4-1.4-0.6-2.9-0.5-4.4
	c-0.1-1.4,0.3-2.9,1.1-4.1c0.9-1.1,2.1-2.1,3.4-2.7c2.5-1.6,5.2-3,7.7-4.7c2.6-1.7,4.7-4.1,6.1-6.8c1.2-2.9,1.7-5.9,1.6-9
	c-0.1-3,0-6,0.3-9c0.9-5.9,3.6-11.4,7.9-15.6c4.2-4.2,9.5-7.2,15.4-8.6c2.9-0.8,5.9-1.1,8.9-1.1C542.9,47.6,545.9,48.2,548.6,49.5"
	/>
<path class="st26" d="M533.9,122.9c0.5-2.9,0.6-5.9,0.5-8.8c-0.1-3.7-0.1-7.4-0.3-11.1c3.4-0.8,7-1.1,10.5-1c3.2,0.1,6.4-0.2,9.6,0
	c0.3,0,0.5,0.1,0.7,0.2c0.2,0.2,0.2,0.4,0.2,0.7c0.4,5,0,10,0.3,15c0.1,1.4,0.3,2.9,0.5,4.3c-0.5,0.4-1,0.9-1.5,1.3
	c-4,3-9.2,3.9-14.1,2.6C538.1,125.3,535.9,124.3,533.9,122.9"/>
<path class="st24" d="M520.3,83.2c0-4.5,0.8-9,2.2-13.4c5.7-16.6,26.5-20.4,38.8-8.3c13.7,13.5,8,45.3-6.9,56.3
	c-4.1,3-9.2,3.9-14.1,2.6C526,116.3,520,98.5,520.3,83.2"/>
<path class="st26" d="M520.3,68.8c4.5-16.9,25-22.2,38.1-11c2,1.8,3.7,3.9,5.1,6.2c1.3,1.9,3,3.4,4.2,5.5c1.2,2.2,1.9,4.6,2.1,7.1
	c0.2,2.4-0.5,4.5-0.6,6.8c0.1-2.4-1-4.8-2.8-6.4c-1.5-1.1-3.1-2.1-4.8-2.9s-3.1-2.2-3.8-3.9c-5.2,6.9-13.4,9-21.4,11
	c-6.7,1.7-14.1,5.9-14.2,13.7c0,0.9-0.2,1.7-0.5,2.6c-0.4-1.1-0.7-2.2-0.8-3.3c-0.2-1.3-0.5-2.6-0.8-3.8c-0.5-2.6-0.9-5.3-1-8
	C518.9,77.8,519.3,73.3,520.3,68.8"/>
<path class="st12" d="M516.5,97.9c-1.3-1.1-2.3-2.5-2.9-4.1c-1.8-5.3-1.6-11.1-1.4-16.7c0-3.1,0.4-6.3,1.1-9.3
	c1-3.2,2.6-6.1,4.8-8.7c5.9-7,14.7-10.8,23.8-10.1c3.5,0.3,6.1,2,9.1,3.4s6.5,2.2,9.7,3.2c3.6,1.2,7.4,2.5,10.3,5
	c2.1,1.9,3.7,4.2,4.8,6.8c1.2,3.1,1.6,6.5,1.1,9.8c-0.2,2.8-0.8,5.5-1.9,8.1c-1.1,2.4-3.6,3.9-5.9,5.1c0.3-0.2,0-4.1,0.1-4.7
	c0.2-3.5-0.2-7-1.2-10.3c-1-3.2-3.1-5.2-5.8-7.2c-1.1-0.8-2.1-1.6-3.1-2.6c-0.5-0.5-2.4-2.8-2.1-3.5c-1.5,3.5-3.9,6.6-6.9,9.1
	c-5.7,4-11.9,7.3-18.5,9.7l-1.4,0.6c-1.8,0.6-3.5,1.6-5,2.8c-3.2,3-3.5,7.5-3.3,11.6c0,0.4,0,0.9-0.1,1.3
	C521,99.3,517.8,98.9,516.5,97.9"/>
<polygon class="st27" points="606.1,196.4 607.2,198.8 484.1,198.8 485.3,196.1 "/>
<path class="st27" d="M492.6,276.6h106.1l7.6-79c0.1-1.3-0.9-2.5-2.2-2.6H604H487.3c-1.3,0-2.4,1.1-2.3,2.5v0.1L492.6,276.6z"/>
<path class="st21" d="M491.8,278.8h107.8l7.7-79c0.1-1.3-0.8-2.5-2.1-2.6c-0.1,0-0.2,0-0.3,0H486.4c-1.3,0-2.4,1.1-2.4,2.4
	c0,0.1,0,0.2,0,0.2L491.8,278.8z"/>
<rect x="491.8" y="278.8" class="st27" width="107.7" height="4.8"/>
<path class="st27" d="M538.2,238c0,4.1,3.3,7.5,7.5,7.5c4.1,0,7.5-3.3,7.5-7.5s-3.3-7.5-7.5-7.5l0,0
	C541.5,230.5,538.2,233.9,538.2,238L538.2,238"/>
<path class="st12" d="M558.4,313.8c-4.9-0.9-9.8-1.9-14.7-2.7c-24.4-4.1-49.9-8.9-72.1-20.3c-5.1-2.6-10.4-6.8-13.1-12
	c-7-13.7,6.9-26.5,20.5-22.6c22.7,6.5,42.4,20.5,64.1,29.7c3.6,1.5,7.3,3.1,11,4.7c3.2,1.4,6.3,2.8,9.5,4.1"/>
<path class="st24" d="M563.6,294.7c3.6,1.5,7.3,3,11,4.5s25.4,6.2,20.6,14.4c-1,1.6-3,2-4.9,2.3c-10.6,1.3-21.3-0.1-31.9-2"/>
<path class="st24" d="M582.4,316.4c4.7,0.5,9.6,0.4,14,0.6c2,0.1,3.9,0.2,5.9,0.2c3.1-0.1,6.2-0.3,9.3-0.7l6.8-0.8
	c2.9,0.2,5.4-1.8,6-4.6c1.3-2.6,2.4-5.4,3.4-8.1c0.5-1.8,1.2-3.6-0.1-5.4c-0.7-0.8-1.4-1.5-2.3-2c-1.1-0.8-2.3-1.4-3.5-1.9
	c-4.1-1.5-7.9,0.1-11.7,1.6c-4,1.7-8.1,3.1-12.3,4.2c-4.6,0.9-9.3,1.4-14,1.5c-3.7,0.2-9.5-0.1-12.6,2.5c-1.3,1-3.1,3.4-3.1,5
	c0,2.1,2.6,4,4.2,5C575.5,315.1,578.9,316.1,582.4,316.4"/>
<path class="st28" d="M599,317.1c4-0.9,9-2.3,11.4-5.6c1.7-2.5,2.4-5.7,1.9-8.7c-0.4-3-3-5.1-5.9-6.2c5.7-4.1,13-5.4,19.9-3.6
	c0.7,0.2,1.5,0.5,2.1,0.8c9.2,4.5,4.8,15.9-1.8,20.5c-3,2.1-6.6,3.3-10.3,3.6c-3,0.2-5,0.1-7.9,0.1C604.9,318.1,603,317.5,599,317.1
	"/>
<g>
	<path class="st24" d="M607.5,273c-6.4-14-25.1-11-30.5,2.1c-9,21.8-10.2,46-16.5,68.7c-1,4-2,7.9-3,11.7c-1.9,7.1-3.8,14.4-6,21.4
		c0,0.1-0.1,0.3-0.1,0.4c-0.6,1.9-1.4,3.7-2.1,5.5c-0.6,0.7-1.2,1.5-1.8,2.1c-3.1,3.6-6.3,6.9-9.9,10c-4,3.2-8.5,5.3-12.7,8.1
		c-3.6,2.5-5.2,7.3-5.1,11.6c0.2,6.8,5.2,6.9,10.5,8.4c2.5,1.3,5.6,0.5,7.3-1.8l4.8-4.8c2.3-2.2,4.4-4.5,6.4-6.9
		c1.2-1.6,2.4-3.2,3.5-4.8c2.5-3.5,5.7-7.3,8.2-11.3c0.3-0.4,0.5-0.7,0.7-1.1c0.1-0.2,0.2-0.3,0.3-0.5c0.3-0.5,0.7-0.9,1-1.4
		c0.7-0.9,1.3-1.9,2-2.9c3-4.4,5.5-9,8.1-13.7s4.9-9.3,7.4-13.9c12-21.7,24-44.7,28.8-69.2C609.9,285.1,609.9,278.3,607.5,273z"/>
	<path class="st28" d="M551.2,406.6c-3.1,2.6-7.3,5.6-11.4,5.5c-3.1-0.2-5.9-1.6-8-3.9c-2.1-2.1-2.2-5.5-1.2-8.4
		c-6.8,1.9-12.4,6.9-15.1,13.4c-0.3,0.7-0.6,1.4-0.7,2.2c-2.2,10,9.5,13.6,17.2,11.3c3.5-1.1,6.7-3.1,9.2-5.8c2-2.2,3.2-3.8,5-6.1
		C548.3,411.8,548.9,410,551.2,406.6"/>
	<path class="st12" d="M573,373.3c2.4-4.4,4.7-8.9,7-13.2c12-21.7,24-44.6,28.8-69.2c1.1-5.7,1.1-12.4-1.3-17.7
		c-6.4-14-25.1-11-30.5,2.1c-9,21.8-10.2,46-16.5,68.7c-1.1,3.8-2.1,7.6-3.1,11.5c-0.9,3.3-1.8,6.7-2.7,10"/>
</g>
</svg>
