<svg id="Layer_1" data-name="Layer 1" xmlns="http://www.w3.org/2000/svg" xmlns:xlink="http://www.w3.org/1999/xlink" viewBox="0 0 746 400"><defs><style>.cls-1{fill:none;}.cls-2{opacity:0.6;}.cls-3{clip-path:url(#clip-path);}.cls-4{fill:#d4e9ec;}</style><clipPath id="clip-path"><rect class="cls-1" width="745.41" height="400"/></clipPath></defs><g class="cls-2"><g class="cls-3"><path class="cls-4" d="M90,113.15C114,96.57,139.65,81.78,161.47,66.74c62.29-43,110.16-74,185.25-65.24C427.37,11,507.56-16.24,584.63,22.72,629.8,45.56,680,72.38,718.45,104c24.33,20.06,25.39,30.7,26.87,66.12,3.09,74.2-70.12,118.71-133.62,135.55-58.53,15.53-118,16-175.07,38.14-46,17.88-82.75,56.43-135.37,56.15-65.65-.35-136.62-12-198.78-30.8C61,356.64-.38,351.24,0,294.18c.26-37.62,4.45-88.81,25.92-121,15.65-23.5,39-42.72,64.06-60"/></g></g></svg>