<svg id="Layer_1" data-name="Layer 1" xmlns="http://www.w3.org/2000/svg" viewBox="0 0 65 65"><defs><style>.cls-1{fill:#00758d;}</style></defs><path class="cls-1" d="M34.31,30.54c-6.69,1.46-10-1.65-10.21-1.82A2.18,2.18,0,0,0,21,31.79c.16.17,3.51,3.49,9.87,3.49a20.66,20.66,0,0,0,4.36-.48,2.18,2.18,0,0,0-.93-4.26"/><path class="cls-1" d="M14.55,20a4.9,4.9,0,1,1-4.9,4.9,4.9,4.9,0,0,1,4.9-4.9"/><path class="cls-1" d="M59.87,44.93l-9.18-3.7a2.66,2.66,0,0,0-1-.2H47.35v-.51a1.6,1.6,0,0,0-.18-.72l8.65,2.36a2.35,2.35,0,0,0,.69.1,2.6,2.6,0,0,0,.68-5.1l-11.4-3.11a2.69,2.69,0,0,0-.7-.09l-7.77,0a3,3,0,0,1-2.09,1.74,18.15,18.15,0,0,1-3.88.42,18.44,18.44,0,0,1-10.78-3.52,2.92,2.92,0,0,1-1.1-2A3,3,0,0,1,24.25,28,12,12,0,0,0,28.71,30l-4.79-3.09c-1.68-1.09-3.77-.34-5,.82a3.74,3.74,0,0,0-.69.82,6.64,6.64,0,0,0-.49,1h0c-.55,1.6-.38,3.81,1.32,4.9l9.09,5.86.33.19V41H25.88l-12.1-8.39.17-.22a1.52,1.52,0,0,0-.48-2.09L9.35,27.76a1.5,1.5,0,0,0-2,.43,2.66,2.66,0,0,0-2.69,4.58L23.52,45.89a2.68,2.68,0,0,0,1.52.48h3.53a1.59,1.59,0,0,0,1.48,1h3.36V59.94H31.77a1.28,1.28,0,1,0,0,2.56H44.19a1.28,1.28,0,0,0,0-2.56H42.41V47.41h3.35a1.61,1.61,0,0,0,1.49-1h1.92l8.7,3.51a2.65,2.65,0,0,0,3.47-1.47,2.68,2.68,0,0,0-1.47-3.48"/><path class="cls-1" d="M23.29,23.76a2.08,2.08,0,0,0,2.08,2.08c4.85,0,7.54-1.3,9.29-2.84v3.37c-.15.67-.44,1.93-.78,3.43l.39-.07a2.73,2.73,0,0,1,.64-.07A3,3,0,0,1,37.81,32a2.84,2.84,0,0,1,0,1.16l7.39,0a3.39,3.39,0,0,1,.91.12l1.08.29c-.61-3-1.31-6-1.6-7.16v-4A17.19,17.19,0,0,1,46.85,30a2.08,2.08,0,0,0,2,2.11h0A2.07,2.07,0,0,0,51,30.09c.14-9.87-5-15.16-9.56-16.25h0l-1.29,1.36L38.8,13.85a10.24,10.24,0,0,0-5.21,4.09c-1.49,2-2.77,3.74-8.22,3.74a2.08,2.08,0,0,0-2.08,2.08"/><path class="cls-1" d="M40.22,13.43a5,5,0,0,0,5-5,4.93,4.93,0,0,0-1.07-3.07H42.54V4.59h.89a5,5,0,0,0-1-.67,2.41,2.41,0,0,0-4.39,0,5,5,0,0,0-1,.67h1v.76H36.27a5,5,0,0,0,3.95,8.08m0-9.87a1.36,1.36,0,1,1-1.36,1.36,1.36,1.36,0,0,1,1.36-1.36"/><path class="cls-1" d="M26.1,16.67H24.74V5.21H7.07V16.67H5.84V19.3H26.1Zm-2.84-10v5.09H18.43a.26.26,0,0,0-.24.18l-.71,2.4-.7-2.4a.26.26,0,0,0-.25-.18h-1L14.18,7.6a.26.26,0,0,0-.48,0l-1.4,4.18H8.55V6.69ZM8.55,16.17V12.29h3.93a.25.25,0,0,0,.24-.18l1.22-3.63,1.21,3.63a.26.26,0,0,0,.24.18h1l.89,3a.25.25,0,0,0,.25.18.25.25,0,0,0,.24-.18l.9-3h4.63v3.89Z"/></svg>