<svg id="Layer_1" data-name="Layer 1" xmlns="http://www.w3.org/2000/svg" viewBox="0 0 65 65"><defs><style>.cls-1{fill:#00758d;}</style></defs><path class="cls-1" d="M34.82,1.5a6.45,6.45,0,1,1-6.45,6.44A6.44,6.44,0,0,1,34.82,1.5Z"/><path class="cls-1" d="M45.26,28a2.53,2.53,0,0,1,0,5.05h0l-.35,0c-5.37-.73-8.35-2-10.13-4.13l-1.15,5.38a4.82,4.82,0,0,1-.38,1.07l5.15,8.15a3.13,3.13,0,0,1,.38.88l3.07,11.49a3.19,3.19,0,0,1-2.26,3.9,3.3,3.3,0,0,1-.82.11,3.21,3.21,0,0,1-3.08-2.37l-2.94-11-3.78-6L28.6,46.3a3.77,3.77,0,0,1-.21.94L24.1,58.33a3.19,3.19,0,0,1-3,2A3.08,3.08,0,0,1,20,60.15,3.2,3.2,0,0,1,18.15,56l4.12-10.64.65-9.87a4.45,4.45,0,0,1-.86-3.68l3-13.91c.55-2.59,3.18-3.84,5.42-3.9h0a9.08,9.08,0,0,1,1.46.13,5.24,5.24,0,0,1,1.33.48,6.09,6.09,0,0,1,3.33,3.92c.13.25,1.07,6.1,2,7.2.78.9,2.3,1.54,4.94,2Z"/><path class="cls-1" d="M58.89,63.5H6.11a.94.94,0,0,1-.94-.94V25.78a.95.95,0,0,1,1.89,0V61.61H57.94V25.78a.95.95,0,0,1,1.89,0V62.56A.94.94,0,0,1,58.89,63.5Z"/><path class="cls-1" d="M10.23,30.4h-.9a.5.5,0,0,1,0-1h.9a.5.5,0,0,1,0,1Z"/><path class="cls-1" d="M19.83,30.4H18a.5.5,0,0,1,0-1h1.87a.5.5,0,0,1,0,1Zm-3.73,0h-4a.5.5,0,0,1,0-1h4a.5.5,0,0,1,0,1Z"/><path class="cls-1" d="M50.77,30.4H48.9a.5.5,0,0,1,0-1h1.87a.5.5,0,0,1,0,1ZM47,30.4H43a.5.5,0,0,1,0-1h4a.5.5,0,0,1,0,1Zm-5.87,0H39.3a.5.5,0,0,1,0-1h1.87a.5.5,0,0,1,0,1Zm-5.87,0H33.43a.5.5,0,0,1,0-1H35.3a.5.5,0,0,1,0,1Zm-3.73,0h-4a.5.5,0,0,1,0-1h4a.5.5,0,0,1,0,1Zm-5.87,0H23.83a.5.5,0,0,1,0-1H25.7a.5.5,0,0,1,0,1Z"/><path class="cls-1" d="M55.67,30.4h-.9a.5.5,0,0,1,0-1h.9a.5.5,0,0,1,0,1Z"/><path class="cls-1" d="M10.23,35.81h-.9a.5.5,0,0,1,0-1h.9a.5.5,0,0,1,0,1Z"/><path class="cls-1" d="M16.07,35.81H11.79a.5.5,0,1,1,0-1h4.28a.5.5,0,0,1,0,1Z"/><path class="cls-1" d="M50.64,35.81H46.36a.5.5,0,0,1,0-1h4.28a.5.5,0,1,1,0,1Zm-5.84,0H43.25a.5.5,0,1,1,0-1H44.8a.5.5,0,1,1,0,1Zm-5.68,0H34.84a.5.5,0,1,1,0-1h4.28a.5.5,0,0,1,0,1Zm-5.84,0H31.72a.5.5,0,0,1,0-1h1.56a.5.5,0,0,1,0,1Zm-5.69,0H23.31a.5.5,0,0,1,0-1h4.28a.5.5,0,1,1,0,1Zm-5.84,0H20.2a.5.5,0,1,1,0-1h1.55a.5.5,0,1,1,0,1Z"/><path class="cls-1" d="M55.67,35.81h-.9a.5.5,0,0,1,0-1h.9a.5.5,0,0,1,0,1Z"/><path class="cls-1" d="M10.23,41.22h-.9a.49.49,0,0,1-.49-.49.5.5,0,0,1,.49-.5h.9a.5.5,0,0,1,.49.5A.49.49,0,0,1,10.23,41.22Z"/><path class="cls-1" d="M19.83,41.22H18a.49.49,0,0,1-.49-.49.5.5,0,0,1,.49-.5h1.87a.5.5,0,0,1,.49.5A.49.49,0,0,1,19.83,41.22Zm-3.73,0h-4a.49.49,0,0,1-.49-.49.5.5,0,0,1,.49-.5h4a.5.5,0,0,1,.49.5A.49.49,0,0,1,16.1,41.22Z"/><path class="cls-1" d="M50.77,41.22H48.9a.49.49,0,0,1-.49-.49.5.5,0,0,1,.49-.5h1.87a.5.5,0,0,1,.49.5A.49.49,0,0,1,50.77,41.22Zm-3.73,0H43a.49.49,0,0,1-.49-.49.5.5,0,0,1,.49-.5h4a.5.5,0,0,1,.49.5A.49.49,0,0,1,47,41.22Zm-5.87,0H39.3a.49.49,0,0,1-.49-.49.5.5,0,0,1,.49-.5h1.87a.5.5,0,0,1,.49.5A.49.49,0,0,1,41.17,41.22Zm-5.87,0H33.43a.49.49,0,0,1-.49-.49.5.5,0,0,1,.49-.5H35.3a.5.5,0,0,1,.49.5A.49.49,0,0,1,35.3,41.22Zm-3.73,0h-4a.49.49,0,0,1-.49-.49.5.5,0,0,1,.49-.5h4a.5.5,0,0,1,.49.5A.49.49,0,0,1,31.57,41.22Zm-5.87,0H23.83a.49.49,0,0,1-.49-.49.5.5,0,0,1,.49-.5H25.7a.5.5,0,0,1,.49.5A.49.49,0,0,1,25.7,41.22Z"/><path class="cls-1" d="M55.67,41.22h-.9a.49.49,0,0,1-.49-.49.5.5,0,0,1,.49-.5h.9a.5.5,0,0,1,.49.5A.49.49,0,0,1,55.67,41.22Z"/><path class="cls-1" d="M10.23,46.63h-.9a.49.49,0,0,1,0-1h.9a.49.49,0,1,1,0,1Z"/><path class="cls-1" d="M16.07,46.63H11.79a.49.49,0,1,1,0-1h4.28a.49.49,0,0,1,0,1Z"/><path class="cls-1" d="M50.64,46.63H46.36a.49.49,0,0,1,0-1h4.28a.49.49,0,1,1,0,1Zm-5.84,0H43.25a.49.49,0,1,1,0-1H44.8a.49.49,0,1,1,0,1Zm-5.68,0H34.84a.49.49,0,1,1,0-1h4.28a.49.49,0,0,1,0,1Zm-5.84,0H31.72a.49.49,0,0,1,0-1h1.56a.49.49,0,0,1,0,1Zm-5.69,0H23.31a.49.49,0,0,1,0-1h4.28a.49.49,0,1,1,0,1Zm-5.84,0H20.2a.49.49,0,1,1,0-1h1.55a.49.49,0,1,1,0,1Z"/><path class="cls-1" d="M55.67,46.63h-.9a.49.49,0,0,1,0-1h.9a.49.49,0,0,1,0,1Z"/><path class="cls-1" d="M10.23,52h-.9a.49.49,0,0,1,0-1h.9a.49.49,0,1,1,0,1Z"/><path class="cls-1" d="M19.83,52H18a.49.49,0,0,1,0-1h1.87a.49.49,0,1,1,0,1ZM16.1,52h-4a.49.49,0,0,1,0-1h4a.49.49,0,0,1,0,1Z"/><path class="cls-1" d="M50.77,52H48.9a.49.49,0,0,1,0-1h1.87a.49.49,0,0,1,0,1ZM47,52H43a.49.49,0,0,1,0-1h4a.49.49,0,1,1,0,1Zm-5.87,0H39.3a.49.49,0,1,1,0-1h1.87a.49.49,0,0,1,0,1ZM35.3,52H33.43a.49.49,0,0,1,0-1H35.3a.49.49,0,1,1,0,1Zm-3.73,0h-4a.49.49,0,0,1,0-1h4a.49.49,0,1,1,0,1ZM25.7,52H23.83a.49.49,0,0,1,0-1H25.7a.49.49,0,1,1,0,1Z"/><path class="cls-1" d="M55.67,52h-.9a.49.49,0,0,1,0-1h.9a.49.49,0,0,1,0,1Z"/><path class="cls-1" d="M10.23,57.46h-.9a.5.5,0,0,1-.49-.5.49.49,0,0,1,.49-.49h.9a.49.49,0,0,1,.49.49A.5.5,0,0,1,10.23,57.46Z"/><path class="cls-1" d="M16.07,57.46H11.79a.5.5,0,0,1-.5-.5.49.49,0,0,1,.5-.49h4.28a.49.49,0,0,1,.49.49A.5.5,0,0,1,16.07,57.46Z"/><path class="cls-1" d="M50.64,57.46H46.36a.5.5,0,0,1-.49-.5.49.49,0,0,1,.49-.49h4.28a.49.49,0,0,1,.5.49A.5.5,0,0,1,50.64,57.46Zm-5.84,0H43.25a.5.5,0,0,1-.5-.5.49.49,0,0,1,.5-.49H44.8a.49.49,0,0,1,.5.49A.5.5,0,0,1,44.8,57.46Zm-5.68,0H34.84a.5.5,0,0,1-.5-.5.49.49,0,0,1,.5-.49h4.28a.49.49,0,0,1,.49.49A.5.5,0,0,1,39.12,57.46Zm-5.84,0H31.72a.5.5,0,0,1-.49-.5.49.49,0,0,1,.49-.49h1.56a.49.49,0,0,1,.49.49A.5.5,0,0,1,33.28,57.46Zm-5.69,0H23.31a.5.5,0,0,1-.49-.5.49.49,0,0,1,.49-.49h4.28a.49.49,0,0,1,.5.49A.5.5,0,0,1,27.59,57.46Zm-5.84,0H20.2a.5.5,0,0,1-.5-.5.49.49,0,0,1,.5-.49h1.55a.49.49,0,0,1,.5.49A.5.5,0,0,1,21.75,57.46Z"/><path class="cls-1" d="M55.67,57.46h-.9a.5.5,0,0,1-.49-.5.49.49,0,0,1,.49-.49h.9a.49.49,0,0,1,.49.49A.5.5,0,0,1,55.67,57.46Z"/></svg>