<svg id="Layer_1" data-name="Layer 1" xmlns="http://www.w3.org/2000/svg" viewBox="0 0 65 65"><defs><style>.cls-1{fill:#00758d;}</style></defs><path class="cls-1" d="M50.31,25C42.9,24,39.61,20.35,38,18.17s-2.18-3.07-3.47-3.66a5,5,0,0,0-.88-.37,7.1,7.1,0,1,0-3.24-.23c-2.43.3-8.84,1.8-14.77,9.5C14.8,24.47,14,25.58,13,26.79l-.25.33a2.77,2.77,0,0,0,4.43,3.29l.13-.15c1-1.29,1.93-2.48,2.72-3.53a25.21,25.21,0,0,1,4.68-5.29L22.11,33.5a5,5,0,0,0,.95,4.07l-.72,10.9L17.8,60.22a3.51,3.51,0,0,0,2,4.54,3.57,3.57,0,0,0,1.27.24,3.51,3.51,0,0,0,3.28-2.25L29.1,50.5a3.66,3.66,0,0,0,.23-1l.41-6.35,4.18,6.6,3.25,12.17A3.51,3.51,0,1,0,44,60.08L40.58,47.39a3.51,3.51,0,0,0-.43-1l-5.69-9a4.93,4.93,0,0,0,.42-1.19l2.28-10.63c2.46,2.47,5.21,3.88,12.4,4.86l.37,0a2.76,2.76,0,0,0,.38-5.5Z"/></svg>