<svg id="Layer_1" data-name="Layer 1" xmlns="http://www.w3.org/2000/svg" viewBox="0 0 65 65"><defs><style>.cls-1{fill:#00758d;}</style></defs><path class="cls-1" d="M23.34,50.16V40.38l.43,0V61.47a3,3,0,0,0,6.07,0V37.05a5,5,0,0,0,.5-2.49v-9.2a19.58,19.58,0,0,0,8.9,5.26,2.91,2.91,0,0,0,2.35-.46,2.46,2.46,0,0,0,.85-1.25,2.35,2.35,0,0,0-.85-2.76l-2-.82a14.66,14.66,0,0,1-7.47-5.79C31,18,28.28,15,25.22,14.22l-1.65,1.65L22,14.2h0a17.92,17.92,0,0,0-2.82,1.24c-4.87,3-9.22,7.37-8,19.07a1.77,1.77,0,0,0,.08.4l-.67,0,.39,1.32,1.4.18a2.47,2.47,0,0,0,1.25.37V60.39h-.23v1.25a1.57,1.57,0,0,0-.63,1.25v1.24h3.14V62.89a1.56,1.56,0,0,0-.62-1.25V60.39h-.29V36.5A2.57,2.57,0,0,0,16.19,34a20.11,20.11,0,0,1,.61-8.61v9.16c0,2,.48,2.43.48,2.43V61.52a3,3,0,0,0,6.06-.05V50.16Z"/><path class="cls-1" d="M40.72.5a6.58,6.58,0,1,1-6.58,6.58A6.57,6.57,0,0,1,40.72.5"/><path class="cls-1" d="M41.78,31.69a4.64,4.64,0,0,1-2.29,0,5.23,5.23,0,0,1-.54-.12,24.28,24.28,0,0,1-5-2.11C33.42,31.89,31.56,40,30.7,44.58v3.87A9.12,9.12,0,0,0,34.61,50V61.35a3,3,0,1,0,6,0V50.61h.43V61.35a3,3,0,0,0,6,0V49.82c1.79-.55,3.16-1.4,3.66-2.63,0-2.69-1.44-9.81-2.48-14.36,0,0-5.37-.84-6.51-1.14"/><path class="cls-1" d="M42.32,14h0l-1.58,1.66L39.08,14a16.15,16.15,0,0,0-6.52,4.4l.39.49a13.68,13.68,0,0,0,7,5.47l.71.29a3.81,3.81,0,0,1,2.1-.63,3.76,3.76,0,0,1,1,.13c.45.12,2.8.61,3.67.78v-1a14.45,14.45,0,0,1,1.89,2.66l-5.9-1.12a2.5,2.5,0,0,0-.66-.09,2.07,2.07,0,0,0-.5.06,3.56,3.56,0,0,1,1.1,1.62l0,.08.11.52a3.43,3.43,0,0,1-.11,1.53,3.49,3.49,0,0,1-.77,1.33,35.93,35.93,0,0,0,5.59,1h.17c2.23,0,5-.54,5.87-3.11,1.81-5.11-7-12.77-11.94-14.36"/><path class="cls-1" d="M23.61.69A6.58,6.58,0,1,1,17,7.26,6.57,6.57,0,0,1,23.61.69"/></svg>