<svg id="Layer_1" data-name="Layer 1" xmlns="http://www.w3.org/2000/svg" viewBox="0 0 65 65"><defs><style>.cls-1{fill:#00758d;}</style></defs><path class="cls-1" d="M23.56,30.71a1.15,1.15,0,1,0,0,2.29h2.18a1.15,1.15,0,0,0,0-2.29Z"/><path class="cls-1" d="M15.72,37.62A7.37,7.37,0,1,1,8.35,45,7.38,7.38,0,0,1,15.72,37.62ZM3.15,26.08A1.15,1.15,0,0,0,2,27.23v9.39C2,43,2,45.46,6.11,46a9.66,9.66,0,0,0,19.2.14h4.44a1.15,1.15,0,1,0,0-2.3H25.31a9.66,9.66,0,0,0-19.16-.12c-1.81-.23-1.86-1.12-1.86-7.1V33h15.6a1.15,1.15,0,0,0,0-2.29H4.29V28.38H54.61c2.32,0,3.92.73,4.9,2.33H29.29a1.15,1.15,0,1,0,0,2.29H60.38a17.32,17.32,0,0,1,.33,3.62c0,4.41-.15,6.58-3.34,6.93a9.66,9.66,0,0,0-19.14.29h-4.7a1.15,1.15,0,0,0,0,2.3h4.7a9.66,9.66,0,0,0,19.21-.29C63,45.32,63,40.71,63,36.62a13.62,13.62,0,0,0-1.47-7c-1.38-2.34-3.7-3.53-6.92-3.53ZM47.82,52.36A7.37,7.37,0,1,1,55.19,45,7.38,7.38,0,0,1,47.82,52.36Z"/><path class="cls-1" d="M15.72,46.42A1.43,1.43,0,1,0,14.29,45,1.44,1.44,0,0,0,15.72,46.42Z"/><path class="cls-1" d="M47.82,43.56A1.43,1.43,0,1,0,49.25,45,1.44,1.44,0,0,0,47.82,43.56Z"/><path class="cls-1" d="M15.72,48.72A3.73,3.73,0,1,0,12,45,3.73,3.73,0,0,0,15.72,48.72Zm0-5.16A1.43,1.43,0,1,1,14.29,45,1.44,1.44,0,0,1,15.72,43.56Z"/><path class="cls-1" d="M47.82,41.26A3.73,3.73,0,1,0,51.55,45,3.74,3.74,0,0,0,47.82,41.26Zm0,5.16A1.43,1.43,0,1,1,49.25,45,1.44,1.44,0,0,1,47.82,46.42Z"/><path class="cls-1" d="M46.12,26.08c-2-3.88-7.55-13.44-13.9-13.44h-5.6c-6.35,0-11.91,9.56-13.9,13.44H10.15c1.5-3.14,8-15.73,16.47-15.73h5.6c8.42,0,15,12.59,16.47,15.73"/></svg>