<svg id="Layer_1" data-name="Layer 1" xmlns="http://www.w3.org/2000/svg" viewBox="0 0 65 65"><defs><style>.cls-1{fill:#00758d;}</style></defs><path class="cls-1" d="M49.5,33.18l-9.69-9.7a4.05,4.05,0,0,0-3.06-1.26h-8.6a3.91,3.91,0,0,0-3,1.26l-9.59,9.61c-2.62,2.62.93,6,3.54,3.36l5.8-5.83v5.47H40v-5.5l6,5.95a2.45,2.45,0,1,0,3.54-3.36M26.43,48.78l4.18-4.17-5.69-5.69-4.85,4.85c-1.56,1.56-1.15,4.3.3,5.78l6.77,7a2.52,2.52,0,1,0,3.57-3.53ZM32.5,21.83a7.17,7.17,0,1,0-7.16-7.17,7.16,7.16,0,0,0,7.16,7.17M40,38.92l-5.69,5.69,4.18,4.17-4.28,4.28a2.52,2.52,0,1,0,3.57,3.53l6.77-7c1.46-1.48,1.86-4.22.3-5.78L40,38.92"/></svg>