<svg id="Layer_1" data-name="Layer 1" xmlns="http://www.w3.org/2000/svg" viewBox="0 0 65 65"><defs><style>.cls-1{fill:#fff;}.cls-2,.cls-4{fill:none;stroke-miterlimit:10;stroke-width:2px;}.cls-2{stroke:#fff;}.cls-3{fill:#00758d;}.cls-4{stroke:#00758d;}</style></defs><path class="cls-1" d="M19.77,16.36a5,5,0,1,0-4.13-5.71,5,5,0,0,0,4.13,5.71"/><path class="cls-2" d="M19.77,16.36a5,5,0,1,0-4.13-5.71,5,5,0,0,0,4.13,5.71Z"/><path class="cls-3" d="M51.21,57.14a2.41,2.41,0,0,1-4.74.9s-1.61-11.26-2.91-12.3S28,39.65,28,39.65A4.39,4.39,0,0,1,25.89,38l-8.47-12.3s-3.34.44-3.69,1.21l-4,9a2.42,2.42,0,0,1-4.41-2s4.77-9.47,6-10.67c1.52-1.47,5.68-3.42,7.16-3.42,0,0,10.9,1,13.33.33,2.34-1.16,5.84-6.67,5.84-6.67a2.42,2.42,0,1,1,3.65,3.17S36.79,23.67,32.67,25l-3.88,0,5.06,7,8.9-3.45a2.49,2.49,0,0,1,1.45-.09h0l13.9,3.46a2.42,2.42,0,1,1-1.16,4.69S45.79,33,43.77,33.27s-8.91,3.45-8.91,3.45l12.33,5.44A2.39,2.39,0,0,1,48.66,44Z"/><path class="cls-4" d="M51.21,57.14a2.41,2.41,0,0,1-4.74.9s-1.61-11.26-2.91-12.3S28,39.65,28,39.65A4.39,4.39,0,0,1,25.89,38l-8.47-12.3s-3.34.44-3.69,1.21l-4,9a2.42,2.42,0,0,1-4.41-2s4.77-9.47,6-10.67c1.52-1.47,5.68-3.42,7.16-3.42,0,0,10.9,1,13.33.33,2.34-1.16,5.84-6.67,5.84-6.67a2.42,2.42,0,1,1,3.65,3.17S36.79,23.67,32.67,25l-3.88,0,5.06,7,8.9-3.45a2.49,2.49,0,0,1,1.45-.09h0l13.9,3.46a2.42,2.42,0,1,1-1.16,4.69S45.79,33,43.77,33.27s-8.91,3.45-8.91,3.45l12.33,5.44A2.39,2.39,0,0,1,48.66,44l2.55,13.19Z"/><path class="cls-3" d="M20.93,17.59a6.3,6.3,0,1,0-6.29-6.3,6.3,6.3,0,0,0,6.29,6.3"/></svg>