<svg id="Layer_1" data-name="Layer 1" xmlns="http://www.w3.org/2000/svg" viewBox="0 0 65 65"><defs><style>.cls-1{fill:#00758d;}</style></defs><path class="cls-1" d="M32.5,0a6.73,6.73,0,1,1-6.73,6.73A6.73,6.73,0,0,1,32.5,0"/><path class="cls-1" d="M34.14,13.84l-1.68,1.68-1.62-1.7h0c-4.6,1.8-12.77,8.89-11.89,12.51.71,2.9,4.05,4.17,6.26,4.72l.11,0,.28.1v3.35A4.65,4.65,0,0,0,26,37.08V61.91a3.09,3.09,0,0,0,6.18,0V40.45l.36,0h.08V61.91a3.09,3.09,0,1,0,6.17,0V37.06a5.27,5.27,0,0,0,.54-2.52v-3a3.88,3.88,0,0,0,.45-.14l.06,0c2.23-.5,5.46-1.74,6.2-4.78.87-3.56-6.38-11-11.92-12.78m5.21,9.46A5.64,5.64,0,0,1,41,25.37a4.34,4.34,0,0,1-1.61.77ZM25.51,26.08a4.5,4.5,0,0,1-1.61-.77,5.23,5.23,0,0,1,1.61-2.07Zm11.66,7.51a.71.71,0,0,1-.7.71h-8a.7.7,0,0,1-.7-.71V31.71c.42.06.81.11,1.12.13h.19a2.61,2.61,0,0,0,.19-5.22,8.94,8.94,0,0,1-1.5-.25V21.72a.7.7,0,0,1,.7-.71h1.78V20.7a.7.7,0,0,1,.7-.7h3a.7.7,0,0,1,.71.7V21h1.78a.71.71,0,0,1,.7.71v4.7a11.28,11.28,0,0,1-1.33.21A2.61,2.61,0,0,0,36,31.85h.19c.27,0,.6-.06,1-.11Z"/><path class="cls-1" d="M33.7,22a6.78,6.78,0,0,1-1.2-.68,6.78,6.78,0,0,1-1.2.68,3.43,3.43,0,0,1-1.11.29v2a2.34,2.34,0,0,0,.8,1.86,4.45,4.45,0,0,0,1.51.95A4.45,4.45,0,0,0,34,26.19a2.34,2.34,0,0,0,.8-1.86v-2A3.43,3.43,0,0,1,33.7,22"/></svg>