<svg id="Layer_1" data-name="Layer 1" xmlns="http://www.w3.org/2000/svg" viewBox="0 0 65 65"><defs><style>.cls-1{fill:#00758d;}</style></defs><path class="cls-1" d="M36.27,15.28a8,8,0,0,0-2-.8l-1.76,1.77-1.7-1.79h0a7.88,7.88,0,0,0-2.05.83l-1,.68-.19.1c-.34.22-8.44,5.59-8.44,18.84a2.51,2.51,0,1,0,5,0,29.08,29.08,0,0,1,1.22-8.5v6.16L22.7,47.07h2.93V61.76a3.24,3.24,0,1,0,6.47,0V47.07h.46V61.76a3.24,3.24,0,1,0,6.47,0V47.07h2.88L39.7,32.69V26.34c1,2.19,1.25,5.28,1.25,8.92a2.51,2.51,0,1,0,5,0c0-13.51-7-18.42-8.65-19.35Z"/><path class="cls-1" d="M32.5,0a7,7,0,1,1-7,7,7,7,0,0,1,7-7"/></svg>