<svg id="Layer_1" data-name="Layer 1" xmlns="http://www.w3.org/2000/svg" viewBox="0 0 65 65"><defs><style>.cls-1{fill:#00758d;}</style></defs><path class="cls-1" d="M32.5,13.18a6.34,6.34,0,1,0-6.34-6.34,6.34,6.34,0,0,0,6.34,6.34"/><path class="cls-1" d="M32.53,15.21l1.62-1.7h0a7.7,7.7,0,0,1,1.64.6l.92.52.29.13c.72.45,1.42.92,2.1,1.44l.28.18a11.83,11.83,0,0,0,1.81-1.05c1.62-1.09,3.12-3.06,4.8-5.91l-1.78-1.1-1.42,2.3a.52.52,0,0,1-.32.22l-.12,0a.5.5,0,0,1-.26-.08l-1-.6a.5.5,0,0,1-.16-.7l3.9-6.33a.54.54,0,0,1,.32-.23.47.47,0,0,1,.38.07l1,.6a.5.5,0,0,1,.16.7L45.28,6.6l1.88,1.15a2.58,2.58,0,0,1,3-.3l.23.14a2.6,2.6,0,0,1,1,2.75l1.76,1.09,1.42-2.3a.58.58,0,0,1,.32-.23.51.51,0,0,1,.38.07l1,.6a.51.51,0,0,1,.16.7l-3.9,6.33a.57.57,0,0,1-.32.23H52a.56.56,0,0,1-.27-.08l-1-.6a.51.51,0,0,1-.17-.7l1.42-2.3-1.63-1c-3.58,5.82-7.32,8.32-11,9.27,0,0,0,10.2,0,12.72,0,2.12-.51,2.5-.51,2.5V61.43a3.08,3.08,0,0,1-6.15,0V40.05h-.44V61.43a3.08,3.08,0,0,1-6.15,0V36.65s-.51-.38-.51-2.5c0-2.52,0-12.72,0-12.72-3.71-.95-7.46-3.45-11-9.27l-1.63,1,1.41,2.3a.5.5,0,0,1-.16.7l-1,.6a.5.5,0,0,1-.26.08h-.12a.52.52,0,0,1-.31-.23L8.62,10.27a.5.5,0,0,1,.16-.7l1-.6a.51.51,0,0,1,.38-.07.58.58,0,0,1,.32.23l1.42,2.3,1.76-1.09a2.6,2.6,0,0,1,1-2.75l.23-.14a2.58,2.58,0,0,1,3,.3L19.72,6.6,18.3,4.3a.5.5,0,0,1,.16-.7l1-.6a.47.47,0,0,1,.38-.07.57.57,0,0,1,.32.23L24,9.49a.5.5,0,0,1-.16.7l-1,.6a.5.5,0,0,1-.26.08l-.12,0a.52.52,0,0,1-.32-.22l-1.42-2.3L19,9.43c1.68,2.85,3.18,4.82,4.8,5.91a11.83,11.83,0,0,0,1.81,1.05l.28-.18c.68-.52,1.38-1,2.1-1.44l.29-.13.92-.52a7.7,7.7,0,0,1,1.64-.6h0l1.61,1.7Z"/></svg>