<?xml version="1.0" standalone="no"?>
<!DOCTYPE svg PUBLIC "-//W3C//DTD SVG 20010904//EN"
 "http://www.w3.org/TR/2001/REC-SVG-20010904/DTD/svg10.dtd">
<svg version="1.0" xmlns="http://www.w3.org/2000/svg"
 width="500.000000pt" height="500.000000pt" viewBox="0 0 500.000000 500.000000"
 preserveAspectRatio="xMidYMid meet">
<metadata>
Created by potrace 1.11, written by Peter Selinger 2001-2013
</metadata>
<g transform="translate(0.000000,500.000000) scale(0.100000,-0.100000)"
fill="#000000" stroke="none">
<path d="M2385 4743 c-211 -43 -327 -109 -478 -273 -8 -9 -26 -34 -41 -58 -27
-43 -1006 -1985 -1006 -1996 0 -3 21 10 46 29 139 106 338 137 509 80 64 -22
154 -76 194 -117 17 -17 33 -30 35 -27 2 2 153 303 335 669 182 365 341 675
354 688 51 57 157 81 235 54 85 -29 99 -52 443 -742 177 -355 322 -646 324
-648 1 -1 123 117 270 263 l267 266 -362 722 c-199 397 -382 750 -406 784
-136 191 -371 312 -604 310 -52 0 -104 -2 -115 -4z"/>
<path d="M4558 3256 c-26 -7 -64 -24 -86 -38 -36 -24 -515 -497 -1544 -1525
l-446 -446 -105 104 c-771 768 -939 930 -984 953 -115 58 -242 51 -348 -19
-142 -94 -189 -287 -108 -437 16 -30 130 -151 317 -337 427 -425 428 -426 440
-423 6 2 8 0 4 -4 -4 -3 124 -137 285 -295 324 -321 358 -346 472 -353 69 -4
152 15 204 46 29 17 883 864 2134 2115 149 149 186 206 194 304 22 236 -197
417 -429 355z"/>
<path d="M347 1398 c-231 -460 -331 -670 -339 -710 -15 -70 -1 -167 32 -231
33 -64 105 -132 174 -164 53 -24 74 -27 151 -27 77 0 98 4 148 27 115 54 129
75 380 578 125 251 227 461 227 465 0 5 -70 79 -155 164 -86 85 -171 178 -190
206 -57 86 -93 206 -89 302 0 23 -2 42 -5 42 -3 0 -154 -294 -334 -652z"/>
<path d="M4119 1624 l-266 -265 232 -467 c258 -518 272 -539 383 -594 60 -30
75 -33 157 -33 77 0 98 4 147 27 80 37 142 99 180 177 29 59 32 76 32 154 l0
88 -294 589 c-162 325 -297 590 -300 590 -3 0 -125 -120 -271 -266z"/>
</g>
</svg>
