<svg id="Layer_1" data-name="Layer 1" xmlns="http://www.w3.org/2000/svg" viewBox="0 0 65 65"><defs><style>.cls-1{fill:#949599;}</style></defs><path class="cls-1" d="M23.6,49.59V40.12H24V60.54a2.94,2.94,0,1,0,5.88,0V36.89a4.77,4.77,0,0,0,.48-2.41V25.57A19,19,0,0,0,39,30.67a2.84,2.84,0,0,0,2.28-.45A2.41,2.41,0,0,0,42.1,29a2.28,2.28,0,0,0-.82-2.67l-1.94-.8a14.15,14.15,0,0,1-7.23-5.6c-1.09-1.49-3.72-4.4-6.68-5.15l-1.6,1.59-1.52-1.61h0A16.62,16.62,0,0,0,19.58,16c-4.72,2.9-8.93,7.13-7.75,18.46a1.59,1.59,0,0,0,.08.39h-.65l.38,1.28,1.35.17a2.37,2.37,0,0,0,1.21.36V59.5H14v1.21a1.51,1.51,0,0,0-.61,1.21v1.2h3v-1.2a1.5,1.5,0,0,0-.6-1.21V59.5h-.28V36.36a2.49,2.49,0,0,0,1.15-2.42,19.44,19.44,0,0,1,.59-8.34v8.87c0,1.94.47,2.36.47,2.36V60.59a2.93,2.93,0,1,0,5.86-.05Z"/><path class="cls-1" d="M40.44,1.5a6.37,6.37,0,1,1-6.38,6.37A6.37,6.37,0,0,1,40.44,1.5h0"/><path class="cls-1" d="M41.46,31.7a4.39,4.39,0,0,1-2.22,0,4.82,4.82,0,0,1-.52-.11,23.69,23.69,0,0,1-4.84-2.05c-.51,2.36-2.32,10.21-3.15,14.65v3.74a8.74,8.74,0,0,0,3.79,1.5v11a2.91,2.91,0,0,0,5.81,0V50h.42v10.4a2.91,2.91,0,0,0,5.81,0V49.26c1.73-.53,3.06-1.36,3.54-2.55,0-2.6-1.39-9.5-2.4-13.9,0,0-5.2-.82-6.31-1.11"/><path class="cls-1" d="M42,14.57h0l-1.53,1.61-1.6-1.61a15.61,15.61,0,0,0-6.32,4.26l.38.48a13.29,13.29,0,0,0,6.78,5.3l.69.28a3.66,3.66,0,0,1,2-.61,3.53,3.53,0,0,1,1,.12c.43.12,2.71.59,3.55.76v-1a14,14,0,0,1,1.83,2.57l-5.71-1.08a2.3,2.3,0,0,0-.64-.09,1.91,1.91,0,0,0-.48.06A3.46,3.46,0,0,1,43,27.22v.08l.11.5A3.22,3.22,0,0,1,43,29.28a3.4,3.4,0,0,1-.74,1.29,34.07,34.07,0,0,0,5.41,1h.16c2.16,0,4.85-.52,5.69-3,1.75-5-6.78-12.37-11.56-13.91"/><path class="cls-1" d="M23.87,1.68a6.38,6.38,0,1,1-6.4,6.37,6.37,6.37,0,0,1,6.4-6.37h0"/></svg>