<svg id="Layer_1" data-name="Layer 1" xmlns="http://www.w3.org/2000/svg" viewBox="0 0 65 65"><defs><style>.cls-1{fill:#f7963c;}</style></defs><path class="cls-1" d="M52.89,33.32,41.26,21.68a4.86,4.86,0,0,0-3.67-1.51H27.28a4.7,4.7,0,0,0-3.6,1.51L12.17,33.21c-3.14,3.15,1.12,7.2,4.25,4l7-7v6.56H41.49v-6.6l7.2,7.14A2.94,2.94,0,0,0,53.3,33.7a3.24,3.24,0,0,0-.36-.38M25.21,52l5-5L23.4,40.21,17.58,46c-1.87,1.87-1.38,5.15.36,6.93l8.12,8.4a3,3,0,1,0,4.66-3.86,3.32,3.32,0,0,0-.37-.38ZM32.49,19.7a8.6,8.6,0,1,0-8.59-8.61h0a8.59,8.59,0,0,0,8.58,8.6h0m9,20.51L34.67,47l5,5-5.13,5.13a3,3,0,1,0,3.9,4.61,2.67,2.67,0,0,0,.38-.37L47,53c1.75-1.78,2.23-5.07.36-6.94l-5.82-5.86"/></svg>